<svg width="152" height="120" viewBox="0 0 152 120" fill="none" xmlns="http://www.w3.org/2000/svg">
<path d="M0 96.0754V78.3032H4.55696V91.8222H11.8481V95.9235H0V96.0754Z" fill="url(#paint0_linear)"/>
<path d="M14.4307 96.0754V78.3032H26.7345V82.4045H18.9876V84.8349H24.456V88.6323H18.9876V91.6703H27.0383V95.7716H14.4307V96.0754Z" fill="url(#paint1_linear)"/>
<path d="M28.5566 87.2658C28.5566 84.6835 29.468 82.557 31.2908 80.7342C33.2655 78.9114 35.544 78 38.1263 78C41.468 78 44.0503 79.3671 45.7212 81.9494L42.6832 84.6835C41.468 83.0127 39.949 82.2532 38.1263 82.2532C36.6073 82.2532 35.3921 82.7089 34.6326 83.6203C33.7212 84.5316 33.2655 85.7468 33.2655 87.2658C33.2655 88.7848 33.7212 90 34.6326 90.9114C35.544 91.8228 36.7592 92.2785 38.4301 92.2785C40.1009 92.2785 41.468 91.8228 42.3794 90.7595V90H38.2782V86.0506H47.0883V91.6709C46.3288 93.1899 45.1136 94.4051 43.5946 95.3165C42.0756 96.2278 40.4047 96.6835 38.4301 96.6835C35.6959 96.6835 33.4174 95.7722 31.5946 94.1013C29.468 91.9747 28.5566 89.8481 28.5566 87.2658Z" fill="url(#paint2_linear)"/>
<path d="M49.5186 96.0754V78.3032H61.8224V82.4045H54.0755V84.8349H59.5439V88.6323H54.0755V91.6703H62.278V95.7716H49.5186V96.0754Z" fill="url(#paint3_linear)"/>
<path d="M76.2537 78.3038H80.8106V96.3798H79.2916L69.722 87.1139V96.076H65.165V78H66.684L76.2537 87.2658V78.3038Z" fill="url(#paint4_linear)"/>
<path d="M84.4551 96.0754V78.3032H90.6829C93.4171 78.3032 95.6956 79.0627 97.6703 80.7336C99.4931 82.4045 100.404 84.5311 100.404 87.1133C100.404 89.6956 99.4931 91.8222 97.6703 93.4931C95.8475 95.164 93.4171 96.0754 90.6829 95.9235H84.4551V96.0754ZM89.012 91.9741H90.531C92.05 91.9741 93.2652 91.5184 94.1766 90.7589C95.088 89.8475 95.5437 88.7842 95.5437 87.2653C95.5437 85.7463 95.088 84.683 94.1766 83.9235C93.2652 83.164 92.05 82.7083 90.531 82.7083H89.012V91.9741Z" fill="url(#paint5_linear)"/>
<path d="M113.468 96.076L112.861 94.557H106.329L105.722 96.076H100.709L108.76 78H110.279L118.329 96.076H113.468ZM111.19 90.9114L109.671 86.8101L108.152 90.9114H111.19Z" fill="url(#paint6_linear)"/>
<path d="M135.949 96.0754H130.785L126.835 90.607H124.861V96.0754H120.304V78.3032H127.291C129.266 78.3032 130.937 78.9108 132.152 79.9741C133.367 81.0374 134.127 82.5564 134.127 84.3792C134.127 86.6577 133.215 88.3285 131.392 89.3918L135.949 96.0754ZM124.861 82.4045V86.5058H127.291C127.899 86.5058 128.506 86.3539 128.81 85.8982C129.266 85.4425 129.418 84.9868 129.418 84.3792C129.418 83.7716 129.266 83.3159 128.81 82.8602C128.354 82.5564 127.899 82.2526 127.291 82.2526H124.861V82.4045Z" fill="url(#paint7_linear)"/>
<path d="M151.898 78.3032L145.822 89.2399V96.0754H141.265V89.3918L135.189 78.4551H140.354L143.696 84.683L147.038 78.4551H151.898V78.3032Z" fill="url(#paint8_linear)"/>
<path d="M39.3418 115.519L42.5317 113.088C43.1393 113.848 43.7469 114.455 44.3545 114.759C44.9621 115.215 45.7215 115.367 46.481 115.367C47.6962 115.367 48.3038 114.911 48.3038 114.152C48.3038 113.848 48.1519 113.544 48 113.24C47.6962 113.088 47.2405 112.785 46.481 112.481L44.6583 111.721C41.6203 110.354 40.1013 108.683 40.1013 106.405C40.1013 104.886 40.7089 103.519 41.7722 102.607C42.9874 101.696 44.3545 101.088 46.1772 101.088C49.0633 101.088 51.038 102.304 52.2532 104.734L49.2152 107.164C48.7595 106.557 48.3038 105.949 47.8481 105.797C47.3924 105.493 46.9367 105.342 46.3291 105.342C45.2658 105.342 44.8102 105.645 44.8102 106.405C44.8102 106.709 44.9621 107.012 45.1139 107.164C45.2658 107.316 45.7215 107.62 46.3291 107.772L48.3038 108.683C49.8228 109.291 51.038 110.05 51.7975 110.962C52.557 111.721 52.8608 112.785 52.8608 114C52.8608 115.671 52.2532 117.038 51.038 118.101C49.8228 119.164 48.3038 119.62 46.3291 119.62C44.8102 119.62 43.2912 119.316 42.076 118.557C40.8608 117.797 39.9494 116.734 39.3418 115.519Z" fill="url(#paint9_linear)"/>
<path d="M75.1897 101.545H80.3543L73.0632 119.62H71.5442L66.9872 110.355L62.4302 119.62H60.9113L53.6201 101.545H58.7847L62.1264 110.051L66.2277 101.241H67.7467L71.848 110.051L75.1897 101.545Z" fill="url(#paint10_linear)"/>
<path d="M82.3291 119.165V101.544H86.8861V119.317H82.3291V119.165Z" fill="url(#paint11_linear)"/>
<path d="M107.24 101.088H108.759V119.164H104.202V111.721L100.556 115.974H99.0375L95.3919 111.721V119.164H90.835V101.088H92.3539L99.9489 110.354L107.24 101.088Z" fill="url(#paint12_linear)"/>
<path d="M71.7721 44.5063C69.6455 44.5063 67.367 44.6582 65.2404 45.1139C64.7847 36 62.3544 27.038 57.9493 19.1392C59.3164 18.6835 60.8354 18.6835 62.3544 19.1392C58.1012 13.3671 51.2657 10.0253 43.9746 10.3291C53.9999 22.6329 59.4683 38.1266 59.1645 54.0759C62.8101 52.7089 67.2151 51.9494 71.6202 51.6456V69.5696H79.367V51.4937C83.924 51.7975 88.1771 52.557 91.8227 53.924C91.6708 37.9747 96.9873 22.481 107.013 10.1772C99.8733 9.87342 92.886 13.2152 88.6328 18.9873C89.9999 18.5316 91.5189 18.5316 93.0379 18.9873C88.6328 27.038 86.2025 35.8481 85.7468 44.962C83.6202 44.5063 81.4936 44.3544 79.2151 44.3544V30.6835V17.0127C80.886 17.0127 82.5569 17.3165 84.2278 17.7722L75.7214 0L66.7594 17.9241C68.4303 17.3165 70.1012 17.1646 71.7721 17.1646V30.8354V44.5063Z" fill="url(#paint13_linear)"/>
<path d="M101.392 29.1645C102 31.443 102.303 33.7215 102.303 36.1519C102.303 42.3797 100.177 48 96.6832 52.5569C96.6832 53.0126 96.6832 53.4683 96.6832 53.924L96.2275 58.9367L90.6073 58.3291C88.6326 59.6962 86.506 60.7595 84.2275 61.519V68.8101C98.6579 65.0126 109.443 51.7974 109.443 36.1519C109.443 30.5316 108.076 25.3671 105.645 20.6582C103.974 23.3924 102.607 26.2785 101.392 29.1645Z" fill="url(#paint14_linear)"/>
<path d="M67.2152 61.519C64.9367 60.7595 62.8101 59.6962 60.8354 58.3291L55.2152 58.9367L54.7595 53.924C54.7595 53.4683 54.7595 53.0126 54.7595 52.5569C51.2658 48 49.1392 42.3797 49.1392 36.1519C49.1392 33.7215 49.443 31.2911 50.0506 29.1645C48.8354 26.2785 47.3165 23.3924 45.7975 20.6582C43.3671 25.3671 42 30.5316 42 36.1519C42 51.7974 52.7848 65.0126 67.2152 68.8101V61.519Z" fill="url(#paint15_linear)"/>
<defs>
<linearGradient id="paint0_linear" x1="75.9494" y1="60.2314" x2="75.9494" y2="122.209" gradientUnits="userSpaceOnUse">
<stop offset="0.2742" stop-color="#00FFBB"/>
<stop offset="1" stop-color="#17556E"/>
</linearGradient>
<linearGradient id="paint1_linear" x1="75.9496" y1="60.2314" x2="75.9496" y2="122.209" gradientUnits="userSpaceOnUse">
<stop offset="0.2742" stop-color="#00FFBB"/>
<stop offset="1" stop-color="#17556E"/>
</linearGradient>
<linearGradient id="paint2_linear" x1="75.949" y1="60.2319" x2="75.949" y2="122.209" gradientUnits="userSpaceOnUse">
<stop offset="0.2742" stop-color="#00FFBB"/>
<stop offset="1" stop-color="#17556E"/>
</linearGradient>
<linearGradient id="paint3_linear" x1="75.9489" y1="60.2314" x2="75.9489" y2="122.209" gradientUnits="userSpaceOnUse">
<stop offset="0.2742" stop-color="#00FFBB"/>
<stop offset="1" stop-color="#17556E"/>
</linearGradient>
<linearGradient id="paint4_linear" x1="75.9499" y1="60.2319" x2="75.9499" y2="122.209" gradientUnits="userSpaceOnUse">
<stop offset="0.2742" stop-color="#00FFBB"/>
<stop offset="1" stop-color="#17556E"/>
</linearGradient>
<linearGradient id="paint5_linear" x1="75.9488" y1="60.2314" x2="75.9488" y2="122.209" gradientUnits="userSpaceOnUse">
<stop offset="0.2742" stop-color="#00FFBB"/>
<stop offset="1" stop-color="#17556E"/>
</linearGradient>
<linearGradient id="paint6_linear" x1="75.9495" y1="60.2319" x2="75.9495" y2="122.209" gradientUnits="userSpaceOnUse">
<stop offset="0.2742" stop-color="#00FFBB"/>
<stop offset="1" stop-color="#17556E"/>
</linearGradient>
<linearGradient id="paint7_linear" x1="75.9493" y1="60.2314" x2="75.9493" y2="122.209" gradientUnits="userSpaceOnUse">
<stop offset="0.2742" stop-color="#00FFBB"/>
<stop offset="1" stop-color="#17556E"/>
</linearGradient>
<linearGradient id="paint8_linear" x1="75.9489" y1="60.2314" x2="75.9489" y2="122.209" gradientUnits="userSpaceOnUse">
<stop offset="0.2742" stop-color="#00FFBB"/>
<stop offset="1" stop-color="#17556E"/>
</linearGradient>
<linearGradient id="paint9_linear" x1="75.9494" y1="60.2317" x2="75.9494" y2="122.209" gradientUnits="userSpaceOnUse">
<stop offset="0.2742" stop-color="#00FFBB"/>
<stop offset="1" stop-color="#17556E"/>
</linearGradient>
<linearGradient id="paint10_linear" x1="75.9492" y1="60.2322" x2="75.9492" y2="122.21" gradientUnits="userSpaceOnUse">
<stop offset="0.2742" stop-color="#00FFBB"/>
<stop offset="1" stop-color="#17556E"/>
</linearGradient>
<linearGradient id="paint11_linear" x1="75.9494" y1="60.2321" x2="75.9494" y2="122.21" gradientUnits="userSpaceOnUse">
<stop offset="0.2742" stop-color="#00FFBB"/>
<stop offset="1" stop-color="#17556E"/>
</linearGradient>
<linearGradient id="paint12_linear" x1="75.9489" y1="60.2317" x2="75.9489" y2="122.209" gradientUnits="userSpaceOnUse">
<stop offset="0.2742" stop-color="#00FFBB"/>
<stop offset="1" stop-color="#17556E"/>
</linearGradient>
<linearGradient id="paint13_linear" x1="75.7122" y1="-29.7624" x2="75.7122" y2="73.9284" gradientUnits="userSpaceOnUse">
<stop offset="0.2742" stop-color="#00FFBB"/>
<stop offset="1" stop-color="#17556E"/>
</linearGradient>
<linearGradient id="paint14_linear" x1="75.7119" y1="-29.7625" x2="75.7119" y2="73.9283" gradientUnits="userSpaceOnUse">
<stop offset="0.2742" stop-color="#00FFBB"/>
<stop offset="1" stop-color="#17556E"/>
</linearGradient>
<linearGradient id="paint15_linear" x1="75.7122" y1="-29.7625" x2="75.7122" y2="73.9283" gradientUnits="userSpaceOnUse">
<stop offset="0.2742" stop-color="#00FFBB"/>
<stop offset="1" stop-color="#17556E"/>
</linearGradient>
</defs>
</svg>
