<svg width="220" height="61" viewBox="0 0 220 61" fill="none" xmlns="http://www.w3.org/2000/svg">
<g clip-path="url(#clip0)">
<path d="M74.496 19.7014H74.2668V19.9306V27.8061H67.6045V4.13672H81.6634C84.3625 4.13672 86.59 4.89351 88.1387 6.19642C89.6838 7.49634 90.5693 9.35269 90.5693 11.593C90.5693 14.6609 88.8047 17.1878 85.7962 18.3664L85.5125 18.4775L85.6977 18.7192L91.5061 26.2964V27.8061H84.2635L78.4762 19.7964L78.4079 19.7014H78.2905H74.496ZM74.496 10.1062H74.2668V10.3354V13.5493V13.7785H74.496H81.6634C81.9833 13.7785 82.531 13.7307 83.0063 13.4781C83.2474 13.3501 83.4747 13.1668 83.6416 12.9066C83.8093 12.6452 83.907 12.3189 83.907 11.9191C83.907 11.3657 83.692 10.9013 83.2873 10.5808C82.889 10.2654 82.3294 10.1062 81.6634 10.1062H74.496Z" fill="white"/>
<path d="M101.667 23.9867H101.516L101.457 24.1254L99.8762 27.8061H93.2295V26.3196L93.2519 26.2751L93.2542 26.2703L93.2565 26.2655L103.127 4.13672H110.935L120.973 26.3147V27.8061H114.139L112.558 24.1254L112.499 23.9867H112.348H101.667ZM107.219 11.5975L107.16 11.457H107.007H106.961H106.808L106.749 11.5975L104.032 18.0719L103.899 18.3898H104.244H109.724H110.069L109.936 18.0719L107.219 11.5975Z" fill="white"/>
<path d="M122.743 15.8312C122.743 12.1174 124.078 9.01496 126.601 6.78026C129.034 4.63471 132.537 3.4375 136.38 3.4375C142.901 3.4375 147.983 6.59844 149.596 11.6281V11.6391V13.3662H142.766L142.732 13.2813C141.846 10.7921 139.444 9.40702 136.334 9.40702C134.229 9.40702 132.505 10.0139 131.305 11.1338C130.104 12.2555 129.452 13.869 129.452 15.8312C129.452 17.817 130.115 19.4419 131.323 20.5692C132.528 21.6947 134.252 22.3018 136.334 22.3018C139.494 22.3018 141.845 20.9148 142.778 18.4294L142.813 18.3426H149.643V20.0698V20.0811C148.121 24.8788 142.714 28.2713 136.38 28.2713C132.353 28.2713 128.945 26.9833 126.545 24.7913C124.147 22.6007 122.743 19.4957 122.743 15.8312Z" fill="white"/>
<path d="M161.073 21.98V22.2092H161.302H174.893V27.8061H154.411V4.13672H174.799V9.73361H161.302H161.073V9.96277V12.478V12.7072H161.302H174.143V18.3041H161.302H161.073V18.5332V21.98Z" fill="white"/>
<path d="M86.8582 51.6341L87.2798 52.2877V51.5099V36.1353H93.9422V59.8511H84.6925L74.6885 44.3523L74.2668 43.6989V44.4766V59.8511H67.6045V36.1353H76.8541L86.8582 51.6341Z" fill="white"/>
<path d="M107.089 36.1821H114.871L124.908 58.3599V59.8513H118.074L116.494 56.1709L116.434 56.032H116.283H105.649H105.498L105.439 56.1709L103.859 59.8513H97.2119V58.365L97.2344 58.3205L97.2367 58.3155L97.239 58.3109L107.089 36.1821ZM111.248 43.6429L111.189 43.5024H111.037H110.943H110.79L110.731 43.6429L108.014 50.1173L107.881 50.4353H108.226H113.754H114.098L113.965 50.1173L111.248 43.6429Z" fill="white"/>
<path d="M131.597 42.0079V41.7787H131.367H123.352V36.1353H146.551V41.7787H138.488H138.259V42.0079V59.8511H131.597V42.0079Z" fill="white"/>
<path d="M150.147 59.8048V36.1353H156.81V59.8048H150.147Z" fill="white"/>
<path d="M161.531 47.8779C161.531 44.1643 162.866 41.0619 165.389 38.8272C167.822 36.6816 171.325 35.4844 175.169 35.4844C179.15 35.4844 182.513 36.7154 184.901 38.8271C187.287 40.9368 188.713 43.9373 188.806 47.5084V48.2477C188.713 51.8181 187.275 54.8308 184.883 56.9524C182.489 59.0763 179.126 60.3184 175.169 60.3184C171.142 60.3184 167.733 59.03 165.333 56.8383C162.935 54.6474 161.531 51.5427 161.531 47.8779ZM168.287 47.8316C168.287 49.8175 168.95 51.4423 170.158 52.5694C171.363 53.695 173.087 54.3023 175.169 54.3023C177.273 54.3023 178.997 53.695 180.197 52.5689C181.399 51.4414 182.05 49.8161 182.05 47.8316C182.05 45.8694 181.399 44.2558 180.197 43.1341C178.997 42.0142 177.273 41.4073 175.169 41.4073C173.064 41.4073 171.34 42.0142 170.14 43.1341C168.938 44.2558 168.287 45.8694 168.287 47.8316Z" fill="white"/>
<path d="M200.096 44.4766V59.8511H193.434V36.1353H202.73L212.687 51.6336L213.109 52.2904V51.5099V36.1353H219.771V59.8511H210.568L200.518 44.3519L200.096 43.702V44.4766Z" fill="white"/>
<path d="M59.2834 30.2684C59.2834 21.1819 55.3193 13.0581 49.1327 7.52192C43.967 3.06888 37.2999 0.300781 29.9721 0.300781C27.93 0.300781 25.9479 0.541487 24.0258 0.902544C24.0258 0.902544 23.9658 0.902544 23.9057 0.902544C23.245 1.02289 22.6444 1.20342 22.0437 1.38395C22.0437 1.38395 22.0437 1.38395 21.9837 1.38395C21.9837 1.38395 21.9837 1.38395 21.9236 1.38395C21.7434 1.44412 21.5632 1.5043 21.4431 1.5043C21.383 1.5043 21.3229 1.56448 21.3229 1.56448C21.0827 1.62465 20.8425 1.68483 20.6623 1.80518C20.6022 1.80518 20.5421 1.86536 20.4821 1.86536C20.1817 2.04589 19.2207 2.40694 19.2207 2.40694L19.8814 4.09187L21.8035 8.84577L25.0469 16.789L37.2399 46.8168L42.6456 60.1758L42.7057 53.5566L44.928 56.1443C50.2139 52.9548 54.3581 48.0804 56.8808 42.3036C58.4423 38.6329 59.2834 34.5409 59.2834 30.2684ZM24.8667 7.82277C26.6086 7.40156 28.4105 7.16084 30.2724 7.16084C42.8258 7.16084 52.9767 17.3908 52.9767 29.9676C52.9767 37.9108 48.8921 44.9514 42.7657 49.0434L42.9459 17.5111L34.1165 17.6916L33.1555 19.9784L37.36 24.1305L36.459 34.5409L25.2271 8.72541L24.8667 7.82277Z" fill="white"/>
<path d="M36.5193 49.043L24.7468 19.9179L17.0586 0.962402L16.9985 6.85967L14.7761 4.69331C6.12699 9.92863 0.300781 19.617 0.300781 30.6292C0.300781 47.1776 13.3947 60.6572 29.6119 60.6572C31.6541 60.6572 33.6362 60.4166 35.5583 60.0554C35.5583 60.0554 35.5583 60.0554 35.6183 60.0554C36.1589 59.9349 36.7596 59.8148 37.3001 59.6342C37.6605 59.5136 37.9608 59.4536 38.2011 59.3936L38.6215 59.213C38.8017 59.1525 38.9819 59.0924 39.1621 59.0324C39.5225 58.9118 40.3634 58.6112 40.3634 58.6112L36.5193 49.043ZM34.6573 52.5933C33.0956 52.9544 31.4739 53.135 29.7921 53.135C17.2388 53.135 7.08798 42.9051 7.08798 30.3283C7.08798 22.5656 11.1123 15.5852 16.9985 11.4932L16.8183 43.6272L25.6477 43.4467L26.6688 41.16L22.4643 37.0079L23.3653 26.5974L23.9059 27.8611V27.9213L34.6573 52.5933Z" fill="white"/>
</g>
<defs>
<clipPath id="clip0">
<rect width="220" height="60.9583" fill="white"/>
</clipPath>
</defs>
</svg>
