<svg width="230" height="46" viewBox="0 0 230 46" fill="none" xmlns="http://www.w3.org/2000/svg">
<path d="M155.771 28.5331C149.751 28.5331 144.889 23.644 144.889 17.5983C144.889 11.5657 149.765 6.66343 155.771 6.66343C156.415 6.66343 157.046 6.716 157.663 6.82114L155.837 0H155.771C146.085 0 138.238 7.88571 138.238 17.6114C138.238 27.3371 146.085 35.2229 155.771 35.2229C158.991 35.2229 162.001 34.3554 164.603 32.8309L162.776 25.9834C160.87 27.5737 158.439 28.5331 155.771 28.5331Z" fill="white"/>
<path d="M83.9315 0.499023H77.2812V34.7099H83.9315V0.499023Z" fill="white"/>
<path d="M120.256 0.499023H92.2617V34.7099H98.912V7.17559H108.901V34.7099H115.551V7.17559H120.256C122.254 7.17559 124.002 8.50302 124.514 10.4482L130.994 34.7099H137.867L130.928 8.72645C129.64 3.88988 125.25 0.499023 120.256 0.499023Z" fill="white"/>
<path d="M212.06 0.499023H200.73V44.9482H207.381V7.17559H212.06C217.934 7.17559 222.692 11.9596 222.692 17.8607C222.692 23.7619 217.921 28.5459 212.06 28.5459H210.272L212.06 35.2225C221.601 35.2225 229.342 27.455 229.342 17.8607C229.342 8.26645 221.601 0.499023 212.06 0.499023Z" fill="white"/>
<path d="M186.404 28.0333H179.885C177.887 28.0333 176.152 26.7059 175.627 24.7607L169.147 0.499023H162.273L169.213 26.4825C170.501 31.319 174.891 34.7099 179.885 34.7099H193.054V0.499023H186.404V28.0333Z" fill="white"/>
<path d="M62.3103 28.0333H51.4937V0.499023H44.8434V28.0333H40.1383C38.1274 28.0333 36.3926 26.7059 35.88 24.7607L29.4006 0.499023H28.796H22.5269H11.0006C4.92857 0.499023 0 5.44074 0 11.539C0 17.6373 4.92857 22.579 11.0006 22.579C12.6434 22.579 13.9709 23.9065 13.9709 25.5493C13.9709 27.1922 12.6434 28.5196 11.0006 28.5196H9.21314L11.0006 35.1962C16.3103 35.1962 20.608 30.8722 20.608 25.5493C20.608 20.2133 16.2971 15.9025 11.0006 15.9025C8.59543 15.9025 6.65029 13.9442 6.65029 11.539C6.65029 9.13388 8.59543 7.17559 11.0006 7.17559H24.3011L29.4531 26.4825C30.7411 31.319 35.1309 34.7099 40.1251 34.7099H68.9474V0.499023H62.2971V28.0333H62.3103Z" fill="white"/>
</svg>
