<svg width="16" height="16" viewBox="0 0 16 16" fill="none" xmlns="http://www.w3.org/2000/svg">
<path d="M6.02847e-05 8.04506C0.0175867 12.4557 3.65895 16.0171 8.14777 15.9999C9.03852 15.9999 9.9035 15.8471 10.6994 15.583C8.54572 14.9373 7.44671 13.3989 6.90237 12.234C6.83329 12.0812 6.77247 11.9365 6.72092 11.8009C6.54771 11.2827 6.34049 10.305 6.50441 8.80107C6.51266 8.70796 6.53019 8.61384 6.53947 8.52073C6.53947 8.47822 6.54771 8.43572 6.54771 8.40131C6.54771 8.3588 6.54771 8.32439 6.54771 8.28188C6.54771 8.20496 6.54771 8.12906 6.53947 8.05214C6.50441 7.7465 6.37554 7.46615 6.06419 7.1767C5.76109 6.90445 5.42396 6.71823 5.07859 6.51379C4.77549 6.33567 4.52496 6.14034 4.32599 5.9278C4.12701 5.72337 3.97958 5.51184 3.86721 5.2902C3.64246 4.86513 3.58163 4.44006 3.6074 4.0666C3.62493 3.70125 3.72803 3.38649 3.83215 3.15675C3.8837 3.04644 3.93628 2.94422 3.9703 2.87641C3.97855 2.8592 3.98783 2.842 3.99608 2.82581C3.99608 2.81771 4.00433 2.8086 4.00433 2.8086C4.00433 2.8005 4.01257 2.79139 4.01257 2.79139C4.01257 2.79139 4.01257 2.7833 4.02082 2.7833C4.02082 2.7833 4.02082 2.7752 4.02907 2.7752C4.02907 2.76711 4.03732 2.76711 4.03732 2.758V2.76609C4.03732 2.77419 4.02907 2.79139 4.01979 2.8086C4.01154 2.84301 3.99402 2.88552 3.98474 2.93612C3.95896 3.03834 3.94968 3.16586 3.97649 3.31868C4.02804 3.61623 4.23629 3.97349 4.84147 4.26193C4.84147 4.26193 4.84147 4.45726 4.84147 4.65259C4.84147 4.84792 4.84972 5.03516 4.84972 5.03516C4.84972 5.03516 4.87549 4.85703 4.90126 4.6779C4.92704 4.49977 4.96209 4.32063 4.96209 4.32063C5.02292 4.34594 5.09199 4.37124 5.16107 4.39755C5.23014 4.42285 5.28169 4.49977 5.28169 4.59288V4.78821C5.28169 4.78821 5.29922 4.7032 5.30746 4.61818C5.32499 4.53317 5.33324 4.44816 5.33324 4.44816C5.40231 4.46536 5.47139 4.49066 5.54046 4.50787C6.18069 4.6779 6.60442 4.86513 6.87247 5.04325C7.14052 5.21328 7.27042 5.38331 7.33125 5.50172C7.45187 5.3489 7.73745 5.17077 8.36943 5.12827C8.36943 5.12827 8.3519 5.22138 8.34365 5.3155C8.32613 5.40861 8.31788 5.50273 8.31788 5.50273C8.31788 5.50273 8.34365 5.44302 8.36118 5.38331C8.38695 5.3236 8.40448 5.26389 8.40448 5.26389C8.43953 5.17887 8.51686 5.12827 8.6117 5.11916C8.66325 5.11916 8.72408 5.11916 8.78491 5.11916C8.78491 5.11916 8.75913 5.25478 8.74161 5.39141C8.73336 5.45921 8.72408 5.52702 8.71583 5.57864C8.70758 5.62924 8.70758 5.66365 8.70758 5.66365C8.70758 5.66365 8.71583 5.62924 8.74264 5.57864C8.76016 5.52804 8.78594 5.45921 8.81171 5.39141C8.86326 5.25579 8.92409 5.11916 8.92409 5.11916C9.05399 5.12726 9.19214 5.13636 9.33957 5.15357C9.86742 5.20417 10.2561 5.19608 10.5417 5.16167C10.8272 5.12725 11.0087 5.05945 11.1293 4.99164C11.2499 4.92383 11.3025 4.84691 11.3283 4.8044C11.3283 4.79631 11.3365 4.79631 11.3365 4.7872C11.3365 4.7872 11.3365 4.7872 11.3365 4.7791C11.3365 4.77101 11.3448 4.7538 11.3365 4.74469C11.3365 4.74469 11.3448 4.74469 11.3541 4.7619C11.3623 4.76999 11.3623 4.7791 11.3716 4.79631C11.3798 4.82161 11.3891 4.86412 11.3974 4.90662C11.4149 5.03414 11.4056 5.22138 11.32 5.4248C11.2334 5.62924 11.0778 5.84987 10.7747 6.07051C10.6272 6.18082 10.4458 6.29114 10.2128 6.39336C9.98804 6.50367 9.71999 6.60589 9.39936 6.70811C9.04471 6.82754 8.69006 6.94595 8.37871 7.17569C8.05911 7.40543 7.94673 7.66857 7.94673 7.94081C7.94673 8.02583 7.95498 8.10275 7.96426 8.17865C7.98179 8.25557 7.99931 8.32338 8.01581 8.39928C8.13643 8.81524 8.41376 9.19781 8.68181 9.52977C9.06224 9.99734 9.46019 10.3799 9.90969 10.6602C9.90969 10.6602 9.93546 10.6775 9.98804 10.7028C10.1612 10.805 10.3344 10.8809 10.5159 10.9487C11.1304 11.1956 12.1335 11.4588 13.1974 11.1784C13.2057 11.1784 13.2057 11.1784 13.215 11.1703C13.4222 11.1106 15.4377 10.5074 15.914 7.94081C16.147 6.67471 15.8965 5.3823 15.2831 4.24372C13.9593 1.80463 11.3737 0.113454 8.41582 0.00313832C3.78885 -0.122359 -0.0174661 3.53223 6.02847e-05 8.04506ZM10.1107 12.1075C10.3272 12.1844 10.5262 12.235 10.7252 12.2694C10.9159 12.3039 11.0974 12.3292 11.253 12.3373C11.4087 12.3545 11.5469 12.3545 11.6592 12.3545C11.7716 12.3545 11.8582 12.3464 11.919 12.3464C11.9799 12.3383 12.0139 12.3383 12.0139 12.3383C12.0139 12.3383 11.9788 12.3383 11.919 12.3383C11.8582 12.3383 11.7716 12.3383 11.6592 12.3302C11.5469 12.3221 11.4087 12.3049 11.253 12.2877C11.0974 12.2624 10.9242 12.2371 10.7345 12.1854C10.6396 12.1601 10.5437 12.1348 10.4489 12.1085C10.354 12.0741 10.2499 12.0407 10.1458 12.0063C9.93856 11.9294 9.7303 11.8282 9.52308 11.7179C9.41895 11.6582 9.31585 11.5984 9.21997 11.5225C9.11585 11.4547 9.021 11.3778 8.92615 11.3019C8.73542 11.1491 8.55397 10.9618 8.3983 10.7746C8.23437 10.5793 8.09519 10.3748 7.97457 10.1623C7.85395 9.94978 7.74982 9.72914 7.66322 9.5075C7.57662 9.28687 7.50754 9.07433 7.45599 8.8618C7.43847 8.8112 7.43022 8.75958 7.42094 8.70898C7.40342 8.65837 7.39517 8.60676 7.38589 8.55615C7.36011 8.45393 7.34259 8.36082 7.32506 8.2667C7.30754 8.17359 7.29929 8.07947 7.28176 7.99445C7.27351 7.90944 7.25599 7.82443 7.24671 7.74751C7.23846 7.67059 7.22918 7.60278 7.22093 7.53497C7.21269 7.46716 7.21269 7.40745 7.20341 7.34774C7.19516 7.23742 7.18588 7.15241 7.18588 7.0927C7.18588 7.03299 7.17763 6.99959 7.17763 6.99959C7.17763 6.99959 7.17763 7.034 7.17763 7.0927C7.17763 7.12711 7.17763 7.16051 7.17763 7.20301C7.17763 7.22832 7.17763 7.24552 7.17763 7.27082C7.17763 7.29612 7.17763 7.32143 7.17763 7.34774C7.17763 7.40745 7.17763 7.46716 7.17763 7.53497C7.17763 7.60278 7.18588 7.67059 7.18588 7.7556C7.18588 7.83252 7.19413 7.91754 7.20341 8.00255C7.21166 8.08756 7.22093 8.18067 7.22918 8.2748C7.25496 8.46203 7.29001 8.67457 7.33331 8.8871C7.38486 9.09964 7.44568 9.32938 7.52404 9.55001C7.61064 9.77975 7.70549 10.0085 7.83539 10.2301C7.95601 10.4508 8.10344 10.6724 8.26736 10.8677C8.43129 11.0631 8.62201 11.2503 8.82099 11.4122C9.01997 11.5741 9.23647 11.7098 9.45194 11.8282C9.67875 11.9466 9.9035 12.0397 10.1107 12.1075ZM3.83215 4.08482C3.83215 3.99981 3.83215 3.92289 3.83215 3.85508C3.83215 3.79537 3.8404 3.74477 3.8404 3.71036C3.8404 3.67594 3.84865 3.65975 3.84865 3.65975C3.84865 3.65975 3.84865 3.67696 3.8404 3.71036C3.8404 3.72756 3.83215 3.74477 3.83215 3.77007C3.82391 3.79537 3.82391 3.82067 3.81463 3.85508C3.80638 3.92289 3.7971 3.99981 3.7971 4.08482C3.7971 4.16984 3.7971 4.27205 3.80535 4.38237C3.8136 4.49269 3.83112 4.603 3.86618 4.72243C3.8837 4.78214 3.90123 4.84185 3.91772 4.89245C3.93525 4.95217 3.96102 5.01188 3.9868 5.06248C4.01257 5.12219 4.03835 5.1728 4.0734 5.23251C4.09917 5.29222 4.13423 5.34283 4.16825 5.39444C4.23732 5.49666 4.31568 5.59888 4.393 5.69199C4.47135 5.7851 4.55692 5.87012 4.64352 5.94703C4.68682 5.98954 4.73012 6.02395 4.77342 6.05735C4.81673 6.09176 4.86003 6.12516 4.90333 6.15957C4.98993 6.22738 5.08478 6.27899 5.16313 6.3296C5.24973 6.3802 5.32705 6.42271 5.40541 6.46521C5.48376 6.50772 5.55283 6.54213 5.61263 6.57553C5.67243 6.60893 5.725 6.63524 5.76831 6.66054C5.81161 6.68585 5.84666 6.70305 5.87243 6.72026C5.89821 6.73746 5.90749 6.73746 5.90749 6.73746C5.90749 6.73746 5.89924 6.72936 5.87243 6.71216C5.85491 6.69495 5.82088 6.66965 5.77758 6.64435C5.73428 6.60994 5.69098 6.57654 5.63016 6.54213C5.56933 6.49962 5.50953 6.45712 5.43118 6.41461C5.36211 6.3721 5.28375 6.3215 5.19715 6.26179C5.15488 6.23547 5.11158 6.20106 5.07756 6.17576C5.03426 6.14135 4.99096 6.11605 4.94766 6.08265C4.90436 6.04824 4.86106 6.01484 4.81776 5.98043C4.80023 5.96323 4.77446 5.94602 4.75693 5.92072C4.7394 5.90351 4.71363 5.88631 4.6961 5.86101C4.6095 5.78409 4.53218 5.69908 4.45383 5.60596C4.37547 5.51285 4.29815 5.41873 4.23732 5.31651C4.20227 5.26591 4.16825 5.21429 4.14247 5.16369C4.1167 5.11309 4.08165 5.06147 4.05587 5.00176C4.00433 4.89144 3.96102 4.78113 3.92597 4.6698C3.89092 4.55948 3.86515 4.44917 3.8569 4.34695C3.8404 4.27206 3.83215 4.16984 3.83215 4.08482ZM8.63232 6.83867C8.60655 6.84677 8.59727 6.85587 8.59727 6.85587C8.59727 6.85587 8.60655 6.84677 8.63232 6.83867C8.6581 6.83057 8.69315 6.82146 8.73645 6.80426C8.77975 6.78705 8.84058 6.76985 8.90038 6.74455C8.9612 6.72734 9.03852 6.70204 9.11688 6.67674C9.1942 6.65143 9.2808 6.62613 9.3674 6.59982C9.454 6.57452 9.54885 6.54011 9.6437 6.50671C9.69525 6.4895 9.73855 6.4723 9.79113 6.4561C9.84268 6.4389 9.88598 6.42169 9.93856 6.39639C10.0334 6.35389 10.1375 6.31138 10.2324 6.26078C10.3272 6.21017 10.4231 6.15856 10.5087 6.10795C10.552 6.08265 10.5953 6.05735 10.6386 6.02294C10.6819 5.99764 10.7169 5.96323 10.751 5.93792C10.786 5.91262 10.82 5.87821 10.8551 5.84481C10.8901 5.8104 10.9159 5.7851 10.9499 5.7517C11.0108 5.69199 11.0541 5.63228 11.0974 5.57358C11.1407 5.51387 11.1664 5.46326 11.1922 5.41165C11.218 5.36104 11.2355 5.31854 11.2438 5.28413C11.252 5.26692 11.252 5.24972 11.2613 5.23352C11.2613 5.21632 11.2695 5.20822 11.2695 5.19911C11.2695 5.18191 11.2778 5.1647 11.2778 5.1647C11.2778 5.1647 11.2778 5.1728 11.2695 5.19C11.2613 5.20721 11.252 5.23251 11.2345 5.27502C11.217 5.30943 11.2005 5.35193 11.1737 5.40254C11.1479 5.45314 11.1128 5.50476 11.0695 5.55536C11.0262 5.60596 10.9747 5.66568 10.9221 5.72539C10.8613 5.7851 10.7922 5.8357 10.7231 5.89542C10.6891 5.92072 10.6448 5.94602 10.6107 5.98043C10.5674 6.00573 10.5334 6.03103 10.4901 6.05735C10.4035 6.10795 10.3169 6.15957 10.2221 6.20207C10.1272 6.24458 10.0313 6.29519 9.93649 6.33769C9.91072 6.34579 9.89319 6.3549 9.86742 6.3721C9.84165 6.3802 9.81587 6.38931 9.79834 6.40651C9.7468 6.42372 9.7035 6.44092 9.6602 6.46623C9.61689 6.48343 9.56535 6.50064 9.52205 6.51683C9.47875 6.53403 9.43544 6.55124 9.39215 6.56743C9.30554 6.60184 9.21894 6.62715 9.14162 6.65245C9.06327 6.67775 8.99419 6.71216 8.9344 6.73746C8.87357 6.76276 8.82202 6.78806 8.77872 6.80527C8.68387 6.80426 8.64985 6.82146 8.63232 6.83867Z" fill="#088ECB"/>
</svg>
