<svg width="103" height="10" viewBox="0 0 103 10" fill="none" xmlns="http://www.w3.org/2000/svg">
<path d="M0 0.0747516H3.00822V9.92762H0V0.0747516Z" fill="white"/>
<path d="M5.58686 0.0742226H10.3745L16.359 7.56362L16.2845 0.0742226H19.1305V9.92709H14.3043L8.40224 2.51192L8.47671 9.92709H5.58686V0.0742226Z" fill="white"/>
<path d="M34.0678 6.21819C34.0532 7.65111 34.008 8.13892 33.8018 8.58165C33.4162 9.42471 32.6156 9.8237 31.0742 9.92709C30.4665 9.98542 29.2815 10 27.3106 10C24.4647 10 23.5457 9.86745 22.7451 9.35048C21.7677 8.73012 21.4857 7.69618 21.4857 4.77068C21.4857 2.17126 21.7823 1.24072 22.8156 0.649524C23.7053 0.132556 24.6535 0 27.425 0C31.1155 0 31.9147 0.0742296 32.7605 0.487803C33.5585 0.88547 33.9308 1.75769 33.9308 3.2052V3.52996H31.0609C31.0011 2.45228 30.779 2.36347 28.1711 2.36347C25.7108 2.36347 25.2666 2.42179 24.8956 2.74788C24.5245 3.07397 24.466 3.47163 24.466 5.06628C24.466 7.42975 24.6881 7.60737 27.5779 7.60737C29.8162 7.60737 30.142 7.59279 30.5569 7.41516C30.9718 7.23754 31.15 6.92736 31.15 6.22216L34.0678 6.21819Z" fill="white"/>
<path d="M36.4377 0.0742226H44.9583C46.7071 0.0742226 47.4784 0.221359 48.0409 0.694583C48.6035 1.16781 48.8814 1.99363 48.8814 3.32316C48.8814 5.15508 48.4373 5.87883 47.1779 6.15985C48.408 6.36664 48.7737 6.88361 48.7484 8.37486V9.92709H45.6897V8.70095C45.6751 7.6405 45.3785 7.41516 44.03 7.44432H39.4312V9.92709H36.4377V0.0742226ZM44.1284 5.03711C45.5807 5.03711 45.8573 4.85948 45.8573 3.8852C45.8573 3.25026 45.7974 2.98382 45.6059 2.77703C45.3825 2.54108 45.1311 2.49601 44.2268 2.49601H39.4259V5.03711H44.1284Z" fill="white"/>
<path d="M62.2668 0.0742226V2.30381H54.2781V4.00317H61.8066V5.95307H54.2781V7.69617H62.3705V9.92709H51.3138V0.0742226H62.2668Z" fill="white"/>
<path d="M69.4948 0.0742226H73.5257L78.937 9.92709H75.6468L74.668 8.16807H68.2979L67.3497 9.92709H63.9385L69.4948 0.0742226ZM73.6174 6.11479L71.4896 2.18583L69.3777 6.11479H73.6174Z" fill="white"/>
<path d="M82.6248 2.51192H78.2228V0.0742226H90.0349V2.51192H85.633V9.92709H82.6248V2.51192Z" fill="white"/>
<path d="M102.896 0.0742226V2.30381H94.9076V4.00317H102.437V5.95307H94.9076V7.69617H103V9.92709H91.9446V0.0742226H102.896Z" fill="white"/>
</svg>
