<svg width="18" height="18" viewBox="0 0 18 18" fill="none" xmlns="http://www.w3.org/2000/svg">
<path d="M9.00033 6.50033C8.33728 6.50033 7.7014 6.76372 7.23256 7.23256C6.76372 7.7014 6.50033 8.33728 6.50033 9.00033C6.50033 9.66337 6.76372 10.2993 7.23256 10.7681C7.7014 11.2369 8.33728 11.5003 9.00033 11.5003C9.66337 11.5003 10.2993 11.2369 10.7681 10.7681C11.2369 10.2993 11.5003 9.66337 11.5003 9.00033C11.5003 8.33728 11.2369 7.7014 10.7681 7.23256C10.2993 6.76372 9.66337 6.50033 9.00033 6.50033ZM9.00033 4.83366C10.1054 4.83366 11.1652 5.27265 11.9466 6.05405C12.728 6.83545 13.167 7.89526 13.167 9.00033C13.167 10.1054 12.728 11.1652 11.9466 11.9466C11.1652 12.728 10.1054 13.167 9.00033 13.167C7.89526 13.167 6.83545 12.728 6.05405 11.9466C5.27265 11.1652 4.83366 10.1054 4.83366 9.00033C4.83366 7.89526 5.27265 6.83545 6.05405 6.05405C6.83545 5.27265 7.89526 4.83366 9.00033 4.83366ZM14.417 4.62533C14.417 4.90159 14.3072 5.16654 14.1119 5.3619C13.9165 5.55725 13.6516 5.66699 13.3753 5.66699C13.0991 5.66699 12.8341 5.55725 12.6388 5.3619C12.4434 5.16654 12.3337 4.90159 12.3337 4.62533C12.3337 4.34906 12.4434 4.08411 12.6388 3.88876C12.8341 3.69341 13.0991 3.58366 13.3753 3.58366C13.6516 3.58366 13.9165 3.69341 14.1119 3.88876C14.3072 4.08411 14.417 4.34906 14.417 4.62533ZM9.00033 2.33366C6.93866 2.33366 6.60199 2.33949 5.64283 2.38199C4.98949 2.41283 4.55116 2.50033 4.14449 2.65866C3.78283 2.79866 3.52199 2.96616 3.24449 3.24449C2.98366 3.49649 2.78312 3.80415 2.65783 4.14449C2.49949 4.55283 2.41199 4.99033 2.38199 5.64283C2.33866 6.56283 2.33366 6.88449 2.33366 9.00033C2.33366 11.062 2.33949 11.3987 2.38199 12.3578C2.41283 13.0103 2.50033 13.4495 2.65783 13.8553C2.79949 14.2178 2.96616 14.4787 3.24283 14.7553C3.52366 15.0353 3.78449 15.2028 4.14283 15.3412C4.55449 15.5003 4.99283 15.5887 5.64283 15.6187C6.56283 15.662 6.88449 15.667 9.00033 15.667C11.062 15.667 11.3987 15.6612 12.3578 15.6187C13.0095 15.5878 13.4487 15.5003 13.8553 15.3428C14.2162 15.202 14.4787 15.0345 14.7553 14.7578C15.0362 14.477 15.2037 14.2162 15.342 13.8578C15.5003 13.447 15.5887 13.0078 15.6187 12.3578C15.662 11.4378 15.667 11.1162 15.667 9.00033C15.667 6.93866 15.6612 6.60199 15.6187 5.64283C15.5878 4.99116 15.5003 4.55116 15.342 4.14449C15.2164 3.80449 15.0162 3.49696 14.7562 3.24449C14.5043 2.98353 14.1966 2.78296 13.8562 2.65783C13.4478 2.49949 13.0095 2.41199 12.3578 2.38199C11.4378 2.33866 11.1162 2.33366 9.00033 2.33366ZM9.00033 0.666992C11.2645 0.666992 11.547 0.675325 12.4353 0.716992C13.3228 0.758659 13.927 0.897826 14.4587 1.10449C15.0087 1.31616 15.472 1.60283 15.9353 2.06533C16.3591 2.48191 16.687 2.98582 16.8962 3.54199C17.102 4.07283 17.242 4.67783 17.2837 5.56533C17.3228 6.45366 17.3337 6.73616 17.3337 9.00033C17.3337 11.2645 17.3253 11.547 17.2837 12.4353C17.242 13.3228 17.102 13.927 16.8962 14.4587C16.6876 15.0151 16.3596 15.5192 15.9353 15.9353C15.5186 16.3589 15.0148 16.6868 14.4587 16.8962C13.9278 17.102 13.3228 17.242 12.4353 17.2837C11.547 17.3228 11.2645 17.3337 9.00033 17.3337C6.73616 17.3337 6.45366 17.3253 5.56533 17.2837C4.67783 17.242 4.07366 17.102 3.54199 16.8962C2.9856 16.6874 2.4816 16.3594 2.06533 15.9353C1.6415 15.5188 1.3136 15.0149 1.10449 14.4587C0.897826 13.9278 0.758659 13.3228 0.716992 12.4353C0.677825 11.547 0.666992 11.2645 0.666992 9.00033C0.666992 6.73616 0.675325 6.45366 0.716992 5.56533C0.758659 4.67699 0.897826 4.07366 1.10449 3.54199C1.31302 2.98548 1.641 2.48143 2.06533 2.06533C2.48172 1.64135 2.98568 1.31343 3.54199 1.10449C4.07366 0.897826 4.67699 0.758659 5.56533 0.716992C6.45366 0.677825 6.73616 0.666992 9.00033 0.666992Z" fill="white"/>
</svg>
