<svg width="64" height="64" viewBox="0 0 64 64" fill="none" xmlns="http://www.w3.org/2000/svg">
<circle cx="32" cy="32" r="31.5" stroke="#828282"/>
<path d="M42.3887 30.8249C41.3829 29.8006 40.0495 29.2077 38.6211 29.1462C38.6144 29.057 38.6094 28.934 38.6094 28.7656C38.6094 28.076 39.1338 25.9688 39.4644 24.8026L39.8027 23.6094H35.6972L35.4222 24.0525C35.3131 24.2283 32.75 28.4306 32.75 34.7656C32.75 37.8673 35.2734 40.3906 38.375 40.3906C41.4766 40.3906 44 37.8673 44 34.7656C44 33.2825 43.4278 31.883 42.3887 30.8249ZM38.375 38.5156C36.3073 38.5156 34.625 36.8334 34.625 34.7656C34.625 30.11 36.1642 26.664 36.7724 25.4844H37.341C37.0716 26.543 36.7344 28.0175 36.7344 28.7656C36.7344 29.3593 36.7784 29.8362 36.9936 30.2342C37.1853 30.5888 37.5862 31.0111 38.4085 31.0156L38.4494 31.0166C40.4761 31.0559 42.125 32.7377 42.125 34.7656C42.125 36.8334 40.4427 38.5156 38.375 38.5156Z" fill="white"/>
<path d="M29.6387 30.8249C28.6329 29.8006 27.2995 29.2077 25.8711 29.1462C25.8644 29.057 25.8594 28.934 25.8594 28.7656C25.8594 28.076 26.3838 25.9688 26.7144 24.8026L27.0527 23.6094H22.9472L22.6722 24.0525C22.5631 24.2283 20 28.4306 20 34.7656C20 37.8673 22.5234 40.3906 25.625 40.3906C28.7266 40.3906 31.25 37.8673 31.25 34.7656C31.25 33.2825 30.6778 31.883 29.6387 30.8249ZM25.625 38.5156C23.5573 38.5156 21.875 36.8334 21.875 34.7656C21.875 30.11 23.4142 26.664 24.0224 25.4844H24.591C24.3216 26.543 23.9844 28.0175 23.9844 28.7656C23.9844 29.3593 24.0284 29.8362 24.2436 30.2342C24.4353 30.5888 24.8362 31.0111 25.6585 31.0156L25.6994 31.0166C27.7261 31.0559 29.375 32.7377 29.375 34.7656C29.375 36.8334 27.6927 38.5156 25.625 38.5156Z" fill="white"/>
</svg>
