<svg width="200" height="204" viewBox="0 0 200 204" fill="none" xmlns="http://www.w3.org/2000/svg">
<path d="M0.000753558 102.574C0.219833 158.81 45.7369 204.219 101.847 203.999C112.982 203.999 123.794 202.051 133.743 198.683C106.822 190.45 93.0839 170.836 86.2796 155.984C85.4161 154.035 84.6558 152.19 84.0115 150.461C81.8464 143.854 79.2561 131.389 81.3052 112.214C81.4083 111.027 81.6273 109.826 81.7433 108.639C81.7433 108.097 81.8464 107.555 81.8464 107.117C81.8464 106.575 81.8464 106.136 81.8464 105.594C81.8464 104.613 81.8464 103.646 81.7433 102.665C81.3052 98.7678 79.6943 95.1934 75.8024 91.5029C72.0136 88.0318 67.7995 85.6574 63.4824 83.0509C59.6936 80.7798 56.562 78.2893 54.0748 75.5795C51.5876 72.9729 49.7448 70.276 48.3401 67.45C45.5307 62.0304 44.7704 56.6107 45.0926 51.8492C45.3116 47.1909 46.6003 43.1778 47.9019 40.2486C48.5463 38.8421 49.2035 37.5388 49.6288 36.6742C49.7319 36.4548 49.8479 36.2355 49.951 36.029C49.951 35.9258 50.0541 35.8096 50.0541 35.8096C50.0541 35.7064 50.1572 35.5903 50.1572 35.5903C50.1572 35.5903 50.1572 35.487 50.2603 35.487C50.2603 35.487 50.2603 35.3838 50.3634 35.3838C50.3634 35.2806 50.4665 35.2806 50.4665 35.1645V35.2677C50.4665 35.3709 50.3634 35.5903 50.2474 35.8096C50.1443 36.2484 49.9252 36.7903 49.8092 37.4355C49.487 38.7388 49.3711 40.3647 49.7061 42.3132C50.3505 46.107 52.9537 50.662 60.5184 54.3397C60.5184 54.3397 60.5184 56.8301 60.5184 59.3206C60.5184 61.811 60.6215 64.1982 60.6215 64.1982C60.6215 64.1982 60.9436 61.9272 61.2658 59.6432C61.588 57.3721 62.0261 55.0881 62.0261 55.0881C62.7865 55.4107 63.6499 55.7333 64.5133 56.0688C65.3768 56.3914 66.0211 57.3721 66.0211 58.5592V61.0497C66.0211 61.0497 66.2402 59.9658 66.3433 58.8818C66.5624 57.7979 66.6655 56.714 66.6655 56.714C67.5289 56.9333 68.3923 57.2559 69.2558 57.4753C77.2586 59.6432 82.5552 62.0304 85.9059 64.3015C89.2565 66.4693 90.8803 68.6372 91.6406 70.1469C93.1484 68.1985 96.7181 65.9274 104.618 65.3854C104.618 65.3854 104.399 66.5726 104.296 67.7726C104.077 68.9598 103.974 70.1599 103.974 70.1599C103.974 70.1599 104.296 69.3985 104.515 68.6372C104.837 67.8759 105.056 67.1145 105.056 67.1145C105.494 66.0306 106.461 65.3854 107.646 65.2693C108.291 65.2693 109.051 65.2693 109.811 65.2693C109.811 65.2693 109.489 66.9984 109.27 68.7404C109.167 69.605 109.051 70.4695 108.948 71.1276C108.845 71.7728 108.845 72.2116 108.845 72.2116C108.845 72.2116 108.948 71.7728 109.283 71.1276C109.502 70.4824 109.824 69.605 110.146 68.7404C110.791 67.0113 111.551 65.2693 111.551 65.2693C113.175 65.3725 114.902 65.4886 116.745 65.708C123.343 66.3532 128.201 66.25 131.771 65.8112C135.341 65.3725 137.609 64.5079 139.117 63.6434C140.624 62.7788 141.282 61.7981 141.604 61.2562C141.604 61.1529 141.707 61.1529 141.707 61.0368C141.707 61.0368 141.707 61.0368 141.707 60.9336C141.707 60.8303 141.81 60.611 141.707 60.4948C141.707 60.4948 141.81 60.4948 141.926 60.7142C142.029 60.8174 142.029 60.9336 142.145 61.1529C142.248 61.4755 142.364 62.0175 142.467 62.5594C142.686 64.1853 142.57 66.5726 141.501 69.1663C140.418 71.7728 138.472 74.5859 134.683 77.3989C132.84 78.8055 130.572 80.212 127.66 81.5153C124.851 82.9218 121.5 84.2251 117.492 85.5284C113.059 87.0511 108.626 88.5608 104.734 91.49C100.739 94.4192 99.3342 97.7742 99.3342 101.245C99.3342 102.329 99.4373 103.31 99.5532 104.278C99.7723 105.258 99.9914 106.123 100.198 107.091C101.705 112.394 105.172 117.272 108.523 121.505C113.278 127.466 118.252 132.344 123.871 135.918C123.871 135.918 124.193 136.138 124.851 136.46C127.016 137.763 129.181 138.731 131.449 139.596C139.129 142.744 151.668 146.099 164.968 142.525C165.071 142.525 165.071 142.525 165.187 142.422C167.777 141.66 192.971 133.97 198.925 101.245C201.838 85.1026 198.706 68.6243 191.038 54.1074C174.491 23.009 142.171 1.44654 105.198 0.0400135C47.3607 -1.56007 -0.218326 45.0359 0.000753558 102.574ZM126.384 154.371C129.09 155.351 131.578 155.997 134.065 156.435C136.449 156.874 138.717 157.197 140.663 157.3C142.609 157.519 144.336 157.519 145.74 157.519C147.145 157.519 148.228 157.416 148.988 157.416C149.748 157.313 150.174 157.313 150.174 157.313C150.174 157.313 149.735 157.313 148.988 157.313C148.228 157.313 147.145 157.313 145.74 157.21C144.336 157.106 142.609 156.887 140.663 156.668C138.717 156.345 136.552 156.022 134.181 155.364C132.995 155.042 131.797 154.719 130.611 154.384C129.425 153.945 128.124 153.519 126.822 153.08C124.232 152.1 121.629 150.809 119.038 149.403C117.737 148.641 116.448 147.88 115.25 146.912C113.948 146.048 112.762 145.067 111.577 144.099C109.193 142.151 106.925 139.764 104.979 137.376C102.93 134.886 101.19 132.279 99.6821 129.569C98.1743 126.86 96.8727 124.047 95.7902 121.221C94.7077 118.408 93.8443 115.698 93.1999 112.988C92.9809 112.343 92.8778 111.685 92.7618 111.039C92.5427 110.394 92.4396 109.736 92.3236 109.091C92.0014 107.788 91.7824 106.6 91.5633 105.4C91.3442 104.213 91.2411 103.013 91.022 101.929C90.9189 100.845 90.6998 99.7614 90.5839 98.7807C90.4808 97.8 90.3648 96.9355 90.2617 96.0709C90.1586 95.2063 90.1586 94.445 90.0426 93.6837C89.9395 92.2772 89.8235 91.1932 89.8235 90.4319C89.8235 89.6706 89.7204 89.2447 89.7204 89.2447C89.7204 89.2447 89.7204 89.6835 89.7204 90.4319C89.7204 90.8706 89.7204 91.2965 89.7204 91.8384C89.7204 92.161 89.7204 92.3804 89.7204 92.703C89.7204 93.0256 89.7204 93.3482 89.7204 93.6837C89.7204 94.445 89.7204 95.2063 89.7204 96.0709C89.7204 96.9355 89.8235 97.8 89.8235 98.884C89.8235 99.8647 89.9266 100.949 90.0426 102.033C90.1457 103.116 90.2617 104.304 90.3648 105.504C90.687 107.891 91.1251 110.601 91.6664 113.311C92.3107 116.02 93.0711 118.95 94.0505 121.763C95.133 124.692 96.3186 127.608 97.9424 130.434C99.4501 133.247 101.293 136.073 103.342 138.563C105.391 141.054 107.775 143.441 110.262 145.506C112.75 147.57 115.456 149.3 118.149 150.809C120.984 152.319 123.794 153.506 126.384 154.371ZM47.9019 52.0815C47.9019 50.9975 47.9019 50.0168 47.9019 49.1523C47.9019 48.391 48.005 47.7458 48.005 47.307C48.005 46.8683 48.1081 46.6618 48.1081 46.6618C48.1081 46.6618 48.1081 46.8812 48.005 47.307C48.005 47.5264 47.9019 47.7458 47.9019 48.0684C47.7988 48.391 47.7988 48.7136 47.6828 49.1523C47.5798 50.0168 47.4638 50.9975 47.4638 52.0815C47.4638 53.1654 47.4638 54.4687 47.5669 55.8752C47.67 57.2817 47.889 58.6883 48.3272 60.2109C48.5463 60.9723 48.7654 61.7336 48.9716 62.3788C49.1906 63.1401 49.5128 63.9015 49.835 64.5467C50.1572 65.308 50.4793 65.9532 50.9175 66.7145C51.2397 67.4758 51.6778 68.121 52.1031 68.7791C52.9665 70.0824 53.946 71.3857 54.9125 72.5729C55.8919 73.76 56.9615 74.844 58.044 75.8247C58.5853 76.3666 59.1266 76.8054 59.6678 77.2312C60.2091 77.6699 60.7503 78.0958 61.2916 78.5345C62.3741 79.399 63.5597 80.0572 64.5391 80.7023C65.6216 81.3475 66.5882 81.8895 67.5676 82.4315C68.547 82.9734 69.4104 83.4122 70.1579 83.838C70.9053 84.2638 71.5626 84.5993 72.1038 84.9219C72.6451 85.2445 73.0832 85.4639 73.4054 85.6833C73.7276 85.9026 73.8436 85.9026 73.8436 85.9026C73.8436 85.9026 73.7405 85.7994 73.4054 85.58C73.1863 85.3607 72.7611 85.0381 72.2198 84.7155C71.6785 84.2767 71.1373 83.8509 70.377 83.4122C69.6166 82.8702 68.8692 82.3282 67.8897 81.7863C67.0263 81.2443 66.0469 80.5991 64.9644 79.8378C64.436 79.5023 63.8948 79.0635 63.4695 78.741C62.9282 78.3022 62.387 77.9796 61.8457 77.5538C61.3045 77.1151 60.7632 76.6892 60.222 76.2505C60.0029 76.0311 59.6807 75.8118 59.4616 75.4892C59.2425 75.2698 58.9204 75.0504 58.7013 74.7278C57.6188 73.7471 56.6522 72.6632 55.6728 71.4761C54.6934 70.2889 53.7269 69.0888 52.9665 67.7855C52.5284 67.1403 52.1031 66.4822 51.7809 65.837C51.4588 65.1918 51.0206 64.5337 50.6984 63.7724C50.0541 62.3659 49.5128 60.9594 49.0747 59.5399C48.6365 58.1334 48.3143 56.7269 48.2112 55.4236C48.005 54.4687 47.9019 53.1654 47.9019 52.0815ZM107.904 87.193C107.582 87.2962 107.466 87.4124 107.466 87.4124C107.466 87.4124 107.582 87.2962 107.904 87.193C108.226 87.0898 108.664 86.9736 109.206 86.7543C109.747 86.5349 110.507 86.3156 111.255 85.993C112.015 85.7736 112.982 85.451 113.961 85.1284C114.927 84.8058 116.01 84.4832 117.093 84.1477C118.175 83.8251 119.361 83.3864 120.546 82.9605C121.191 82.7412 121.732 82.5218 122.389 82.3153C123.033 82.096 123.575 81.8766 124.232 81.554C125.418 81.012 126.719 80.4701 127.905 79.8249C129.09 79.1797 130.289 78.5216 131.358 77.8764C131.9 77.5538 132.441 77.2312 132.982 76.7925C133.524 76.4699 133.962 76.0311 134.387 75.7085C134.825 75.3859 135.25 74.9472 135.689 74.5214C136.127 74.0826 136.449 73.76 136.874 73.3342C137.634 72.5729 138.176 71.8115 138.717 71.0631C139.258 70.3018 139.58 69.6566 139.903 68.9985C140.225 68.3533 140.444 67.8113 140.547 67.3726C140.65 67.1532 140.65 66.9339 140.766 66.7274C140.766 66.508 140.869 66.4048 140.869 66.2887C140.869 66.0693 140.972 65.8499 140.972 65.8499C140.972 65.8499 140.972 65.9532 140.869 66.1725C140.766 66.3919 140.65 66.7145 140.431 67.2565C140.212 67.6952 140.006 68.2372 139.671 68.8824C139.348 69.5276 138.91 70.1857 138.369 70.8308C137.828 71.4761 137.183 72.2374 136.526 72.9987C135.766 73.76 134.902 74.4052 134.039 75.1666C133.614 75.4892 133.06 75.8118 132.634 76.2505C132.093 76.5731 131.668 76.8957 131.127 77.2312C130.044 77.8764 128.962 78.5345 127.776 79.0764C126.59 79.6184 125.392 80.2636 124.206 80.8056C123.884 80.9088 123.665 81.0249 123.343 81.2443C123.021 81.3475 122.698 81.4637 122.479 81.683C121.835 81.9024 121.294 82.1218 120.752 82.4444C120.211 82.6637 119.567 82.8831 119.026 83.0896C118.484 83.3089 117.943 83.5283 117.402 83.7348C116.319 84.1735 115.237 84.4961 114.27 84.8187C113.291 85.1413 112.427 85.58 111.68 85.9026C110.92 86.2252 110.275 86.5478 109.734 86.7672C108.548 86.7543 108.123 86.9737 107.904 87.193Z" fill="#fff"/>
</svg>
