<svg width="221" height="32" viewBox="0 0 221 32" fill="none" xmlns="http://www.w3.org/2000/svg">
<g clip-path="url(#clip0)">
<path fill-rule="evenodd" clip-rule="evenodd" d="M109.362 0L96.2368 32H0L13.1256 0H109.362Z" fill="#088ECB"/>
<path d="M59.1431 25.106L64.6942 25.0546L71.9574 7.25391H66.5619L59.1431 25.106Z" fill="white"/>
<path d="M9.85693 25.106H26.2509C27.1329 25.106 27.9111 24.8488 28.6374 24.3857C29.3637 23.9227 29.8825 23.2539 30.2457 22.4308L31.2833 19.9613C31.2833 19.9613 31.6983 18.9838 32.1652 17.852C32.5284 16.9774 32.5284 15.6398 31.4389 14.8681C30.4532 14.1992 29.4675 14.0964 28.793 14.0964C24.8502 14.0449 19.8697 14.0964 19.8697 14.0964L21.1667 11.1639H34.9148L36.4193 7.25391H19.9735C19.5584 7.25391 19.1434 7.30535 18.7284 7.45969C18.3133 7.56259 17.9502 7.76838 17.587 7.97416C17.2239 8.2314 16.9126 8.48863 16.6532 8.79731C16.3938 9.106 16.1863 9.46613 16.0306 9.8777C16.0306 9.8777 15.6675 10.9581 14.8893 12.8616C13.9554 15.1253 14.2148 16.5144 14.8374 17.1832C15.5637 17.9549 16.4975 17.6976 18.5727 17.6976C22.3599 17.6976 26.7178 17.6976 26.7178 17.6976L25.4208 20.5787H11.6727L9.85693 25.106Z" fill="white"/>
<path fill-rule="evenodd" clip-rule="evenodd" d="M58.0534 7.20215H63.0857L53.9549 25.1571H47.4699L47.1068 18.2118L42.1263 25.1571H34.2925L39.688 7.20215H44.4609L41.0368 19.3436L46.9511 12.0382H51.309L51.8278 18.7263L58.0534 7.20215Z" fill="white"/>
<path fill-rule="evenodd" clip-rule="evenodd" d="M78.7015 12.6555L73.9286 25.2086H68.3774L75.7962 7.20215H82.0218L84.097 14.2504L91.7752 7.20215H99.2977L91.8271 25.1571H86.3797L91.7752 12.707L84.8752 19.7552H80.3616L78.7015 12.6555Z" fill="white"/>
<path d="M117.248 12.0383C118.026 12.0383 118.701 12.0383 119.323 12.0383C119.946 12.0383 120.516 12.0383 121.087 12.0383C121.606 12.0383 122.073 12.0383 122.488 12.0383C122.903 12.0383 123.318 12.0383 123.629 12.0383C123.94 12.0383 124.252 12.0383 124.511 12.0383C124.771 12.0383 124.978 12.0383 125.186 12.0383C125.393 12.0383 125.549 12.0383 125.653 12.0383C125.808 12.0383 125.912 12.0383 125.964 12.0383C126.068 12.0383 126.119 12.0383 126.171 12.0383C126.223 12.0383 126.275 12.0383 126.275 12.0383H126.327C126.534 11.5753 126.69 11.1637 126.846 10.8036C127.001 10.4434 127.157 10.1348 127.261 9.82608C127.365 9.56884 127.468 9.31161 127.572 9.10582C127.676 8.90003 127.728 8.74569 127.78 8.59135C127.831 8.43701 127.883 8.33412 127.935 8.23122C127.987 8.12833 127.987 8.07688 128.039 8.02543C128.039 7.97399 128.091 7.92254 128.091 7.92254V7.87109C127.053 7.87109 126.119 7.87109 125.289 7.87109C124.407 7.87109 123.629 7.87109 122.903 7.87109C122.177 7.87109 121.502 7.87109 120.931 7.87109C120.309 7.87109 119.79 7.87109 119.323 7.87109C118.856 7.87109 118.389 7.87109 118.026 7.87109C117.663 7.87109 117.3 7.87109 116.989 7.87109C116.677 7.87109 116.418 7.87109 116.21 7.87109C116.003 7.87109 115.795 7.87109 115.692 7.87109C115.536 7.87109 115.432 7.87109 115.328 7.87109C115.225 7.87109 115.173 7.87109 115.121 7.87109C115.069 7.87109 115.017 7.87109 115.017 7.87109H114.965C113.201 7.87109 111.749 8.84859 110.659 10.7521C110.504 11.1123 110.348 11.4724 110.244 11.7811C110.14 12.0897 109.985 12.347 109.933 12.6042C109.829 12.8614 109.777 13.0672 109.674 13.2216C109.622 13.3759 109.518 13.5303 109.518 13.6332C109.466 13.736 109.414 13.8389 109.414 13.9418C109.362 13.9933 109.362 14.0962 109.362 14.1476C109.362 14.1991 109.31 14.1991 109.31 14.2505V14.302C108.843 15.5367 108.895 16.6171 109.466 17.5431C110.037 18.4692 110.919 18.9322 112.164 18.9322C112.734 18.9322 113.305 18.9322 113.772 18.9322C114.291 18.9322 114.706 18.9322 115.121 18.9322C115.536 18.9322 115.899 18.9322 116.21 18.9322C116.522 18.9322 116.833 18.9322 117.04 18.9322C117.3 18.9322 117.507 18.9322 117.663 18.9322C117.819 18.9322 117.974 18.9322 118.13 18.9322C118.234 18.9322 118.337 18.9322 118.441 18.9322C118.545 18.9322 118.597 18.9322 118.597 18.9322C118.649 18.9322 118.649 18.9322 118.701 18.9322H118.753C118.908 18.9322 119.012 18.9836 119.116 19.138C119.168 19.2923 119.168 19.3952 119.116 19.5495C119.012 19.8068 118.96 20.0126 118.856 20.2184C118.804 20.4241 118.701 20.5785 118.649 20.6814C118.597 20.7843 118.545 20.8872 118.493 20.9901C118.441 21.093 118.441 21.1444 118.389 21.1959C118.389 21.2473 118.337 21.2473 118.337 21.2987V21.3502C118.182 21.6074 118.026 21.7618 117.767 21.7618C116.885 21.7618 116.055 21.7618 115.277 21.7618C114.498 21.7618 113.824 21.7618 113.201 21.7618C112.579 21.7618 111.956 21.7618 111.437 21.7618C110.919 21.7618 110.452 21.7618 109.985 21.7618C109.57 21.7618 109.155 21.7618 108.843 21.7618C108.532 21.7618 108.221 21.7618 107.962 21.7618C107.702 21.7618 107.495 21.7618 107.287 21.7618C107.08 21.7618 106.924 21.7618 106.82 21.7618C106.665 21.7618 106.561 21.7618 106.509 21.7618C106.405 21.7618 106.353 21.7618 106.301 21.7618C106.25 21.7618 106.198 21.7618 106.198 21.7618H106.146C105.99 22.2248 105.783 22.6364 105.627 22.9965C105.471 23.3566 105.368 23.6653 105.212 23.974C105.108 24.2312 105.004 24.4885 104.901 24.6942C104.797 24.9 104.745 25.0544 104.693 25.2087C104.641 25.3631 104.589 25.4659 104.537 25.5688C104.486 25.6717 104.486 25.7232 104.434 25.7746C104.434 25.8261 104.382 25.8775 104.382 25.8775V25.929C105.419 25.929 106.353 25.929 107.183 25.929C108.065 25.929 108.843 25.929 109.57 25.929C110.296 25.929 110.971 25.929 111.541 25.929C112.112 25.929 112.683 25.929 113.15 25.929C113.616 25.929 114.083 25.929 114.446 25.929C114.81 25.929 115.173 25.929 115.484 25.929C115.795 25.929 116.055 25.929 116.262 25.929C116.47 25.929 116.677 25.929 116.781 25.929C116.937 25.929 117.04 25.929 117.144 25.929C117.248 25.929 117.3 25.929 117.352 25.929C117.404 25.929 117.456 25.929 117.456 25.929H117.507C118.441 25.929 119.271 25.6717 120.101 25.1058C120.88 24.5399 121.45 23.8196 121.865 22.945C122.021 22.5849 122.177 22.2248 122.28 21.9161C122.384 21.6074 122.54 21.3502 122.592 21.093C122.695 20.8357 122.747 20.6814 122.851 20.4756C122.955 20.2698 122.955 20.1669 123.007 20.064C123.059 19.9611 123.11 19.8582 123.11 19.7553C123.162 19.7039 123.162 19.601 123.162 19.601C123.162 19.5495 123.214 19.5496 123.214 19.4981V19.4467C123.681 18.2119 123.629 17.183 123.059 16.2569C122.488 15.3309 121.606 14.8679 120.413 14.8679C119.842 14.8679 119.271 14.8679 118.804 14.8679C118.286 14.8679 117.871 14.8679 117.456 14.8679C117.04 14.8679 116.677 14.8679 116.366 14.8679C116.055 14.8679 115.795 14.8679 115.536 14.8679C115.277 14.8679 115.069 14.8679 114.913 14.8679C114.758 14.8679 114.602 14.8679 114.446 14.8679C114.291 14.8679 114.239 14.8679 114.135 14.8679C114.031 14.8679 113.98 14.8679 113.98 14.8679C113.928 14.8679 113.928 14.8679 113.876 14.8679H113.824C113.668 14.8679 113.565 14.8164 113.461 14.6621C113.357 14.5592 113.357 14.4049 113.409 14.1991C113.513 13.9418 113.616 13.736 113.668 13.5303C113.72 13.3245 113.824 13.1701 113.876 13.0672C113.928 12.9643 113.98 12.8614 113.98 12.7586C114.031 12.6557 114.031 12.6042 114.031 12.5528C114.031 12.5013 114.083 12.5013 114.083 12.4499V12.3984C114.135 12.2955 114.187 12.1926 114.291 12.1412C114.395 12.0897 114.498 12.0383 114.654 12.0383C115.692 12.0383 116.47 12.0383 117.248 12.0383Z" fill="white"/>
<path d="M140.905 7.92285L135.147 13.4277L133.227 7.9743H128.195L131.567 17.6463L128.247 25.8778H132.812L135.925 18.0065L146.301 7.9743L140.905 7.92285Z" fill="white"/>
<path d="M153.201 12.0383C153.979 12.0383 154.653 12.0383 155.276 12.0383C155.898 12.0383 156.469 12.0383 157.04 12.0383C157.559 12.0383 158.025 12.0383 158.44 12.0383C158.856 12.0383 159.271 12.0383 159.582 12.0383C159.893 12.0383 160.204 12.0383 160.464 12.0383C160.723 12.0383 160.931 12.0383 161.138 12.0383C161.346 12.0383 161.501 12.0383 161.605 12.0383C161.761 12.0383 161.865 12.0383 161.916 12.0383C162.02 12.0383 162.072 12.0383 162.124 12.0383C162.176 12.0383 162.228 12.0383 162.228 12.0383H162.28C162.487 11.5753 162.643 11.1637 162.798 10.8036C162.954 10.4434 163.11 10.1348 163.213 9.82608C163.317 9.56884 163.421 9.31161 163.525 9.10582C163.628 8.90003 163.68 8.74569 163.732 8.59135C163.784 8.43701 163.836 8.33412 163.888 8.23122C163.94 8.12833 163.94 8.07688 163.992 8.02543C163.992 7.97399 164.043 7.92254 164.043 7.92254V7.87109C163.006 7.87109 162.072 7.87109 161.242 7.87109C160.36 7.87109 159.582 7.87109 158.856 7.87109C158.129 7.87109 157.455 7.87109 156.884 7.87109C156.262 7.87109 155.743 7.87109 155.276 7.87109C154.809 7.87109 154.342 7.87109 153.979 7.87109C153.616 7.87109 153.253 7.87109 152.941 7.87109C152.63 7.87109 152.371 7.87109 152.163 7.87109C151.956 7.87109 151.748 7.87109 151.644 7.87109C151.489 7.87109 151.385 7.87109 151.281 7.87109C151.177 7.87109 151.125 7.87109 151.074 7.87109C151.022 7.87109 150.97 7.87109 150.97 7.87109H150.918C149.154 7.87109 147.701 8.84859 146.612 10.7521C146.456 11.1123 146.301 11.4724 146.197 11.7811C146.093 12.0897 145.937 12.347 145.886 12.6042C145.782 12.8614 145.73 13.0672 145.626 13.2216C145.574 13.3759 145.471 13.5303 145.471 13.6332C145.419 13.736 145.367 13.8389 145.367 13.9418C145.315 13.9933 145.315 14.0962 145.315 14.1476C145.315 14.1991 145.263 14.1991 145.263 14.2505V14.302C144.796 15.5367 144.848 16.6171 145.419 17.5431C145.989 18.4692 146.871 18.9322 148.116 18.9322C148.687 18.9322 149.258 18.9322 149.725 18.9322C150.243 18.9322 150.659 18.9322 151.074 18.9322C151.489 18.9322 151.852 18.9322 152.163 18.9322C152.474 18.9322 152.786 18.9322 152.993 18.9322C153.201 18.9322 153.46 18.9322 153.616 18.9322C153.771 18.9322 153.927 18.9322 154.083 18.9322C154.186 18.9322 154.29 18.9322 154.394 18.9322C154.498 18.9322 154.549 18.9322 154.549 18.9322C154.601 18.9322 154.601 18.9322 154.653 18.9322H154.705C154.861 18.9322 154.965 18.9836 155.068 19.138C155.12 19.2923 155.12 19.3952 155.068 19.5495C154.965 19.8068 154.913 20.0126 154.809 20.2184C154.757 20.4241 154.653 20.5785 154.601 20.6814C154.55 20.7843 154.498 20.8872 154.446 20.9901C154.394 21.093 154.394 21.1444 154.342 21.1959C154.342 21.2473 154.29 21.2473 154.29 21.2987V21.3502C154.134 21.6074 153.979 21.7618 153.719 21.7618C152.837 21.7618 152.007 21.7618 151.229 21.7618C150.451 21.7618 149.777 21.7618 149.154 21.7618C148.531 21.7618 147.909 21.7618 147.39 21.7618C146.871 21.7618 146.404 21.7618 145.937 21.7618C145.522 21.7618 145.107 21.7618 144.796 21.7618C144.485 21.7618 144.174 21.7618 143.914 21.7618C143.655 21.7618 143.447 21.7618 143.24 21.7618C143.032 21.7618 142.877 21.7618 142.773 21.7618C142.617 21.7618 142.513 21.7618 142.462 21.7618C142.358 21.7618 142.306 21.7618 142.254 21.7618C142.202 21.7618 142.15 21.7618 142.15 21.7618H142.098C141.943 22.2248 141.735 22.6364 141.58 22.9965C141.424 23.3566 141.32 23.6653 141.165 23.974C141.061 24.2312 140.957 24.4885 140.853 24.6942C140.75 24.9 140.698 25.0544 140.646 25.2087C140.594 25.3631 140.542 25.4659 140.49 25.5688C140.438 25.6717 140.438 25.7232 140.386 25.7746C140.386 25.8261 140.334 25.8775 140.334 25.8775V25.929C141.372 25.929 142.306 25.929 143.136 25.929C144.018 25.929 144.796 25.929 145.522 25.929C146.249 25.929 146.923 25.929 147.494 25.929C148.065 25.929 148.635 25.929 149.102 25.929C149.569 25.929 150.036 25.929 150.399 25.929C150.762 25.929 151.125 25.929 151.437 25.929C151.748 25.929 152.007 25.929 152.215 25.929C152.422 25.929 152.63 25.929 152.734 25.929C152.889 25.929 152.993 25.929 153.097 25.929C153.201 25.929 153.253 25.929 153.304 25.929C153.356 25.929 153.408 25.929 153.408 25.929H153.46C154.394 25.929 155.224 25.6717 156.054 25.1058C156.832 24.5399 157.403 23.8196 157.818 22.945C157.974 22.5849 158.129 22.2248 158.233 21.9161C158.337 21.6074 158.492 21.3502 158.544 21.093C158.648 20.8357 158.7 20.6814 158.804 20.4756C158.856 20.3213 158.907 20.1669 158.959 20.064C159.011 19.9611 159.063 19.8582 159.063 19.7553C159.115 19.7039 159.115 19.601 159.115 19.601C159.115 19.5495 159.167 19.5496 159.167 19.4981V19.4467C159.634 18.2119 159.582 17.183 159.011 16.2569C158.44 15.3309 157.559 14.8679 156.365 14.8679C155.795 14.8679 155.224 14.8679 154.757 14.8679C154.238 14.8679 153.823 14.8679 153.408 14.8679C152.993 14.8679 152.63 14.8679 152.319 14.8679C152.007 14.8679 151.748 14.8679 151.489 14.8679C151.229 14.8679 151.022 14.8679 150.866 14.8679C150.71 14.8679 150.555 14.8679 150.399 14.8679C150.295 14.8679 150.192 14.8679 150.088 14.8679C149.984 14.8679 149.932 14.8679 149.932 14.8679C149.88 14.8679 149.88 14.8679 149.828 14.8679H149.777C149.621 14.8679 149.517 14.8164 149.413 14.6621C149.31 14.5592 149.31 14.4049 149.362 14.1991C149.465 13.9418 149.569 13.736 149.621 13.5303C149.673 13.3245 149.777 13.1701 149.828 13.0672C149.88 12.9643 149.932 12.8614 149.932 12.7586C149.984 12.6557 149.984 12.6042 149.984 12.5528C149.984 12.5013 150.036 12.5013 150.036 12.4499V12.3984C150.088 12.2955 150.14 12.1926 150.243 12.1412C150.347 12.0897 150.451 12.0383 150.607 12.0383C151.592 12.0383 152.422 12.0383 153.201 12.0383Z" fill="white"/>
<path d="M170.217 11.9872H164.251L165.911 7.92285H181.89L180.23 11.9872H174.419L169.231 25.8264H164.977L170.217 11.9872Z" fill="white"/>
<path d="M183.031 10.855C184.069 8.90003 185.47 7.87109 187.338 7.87109H199.789L198.18 11.9868H190.969H187.493C187.389 11.9868 187.286 12.0383 187.182 12.0897C187.078 12.1926 186.974 12.2955 186.922 12.3984L185.989 14.765H193.304L191.747 18.8293H184.38L183.498 20.9901C183.447 21.1444 183.447 21.2987 183.55 21.4531C183.654 21.556 183.758 21.6589 183.913 21.6589H189.465H194.393C193.926 22.8936 193.356 24.2827 192.785 25.7232H182.15C180.904 25.7232 179.919 25.2602 179.296 24.3341C178.674 23.4081 178.57 22.3277 179.037 21.1444L183.031 10.855Z" fill="white"/>
<path d="M212.759 25.7753C212.499 25.7753 212.24 25.7753 211.98 25.7753C211.773 25.7753 211.565 25.7753 211.358 25.7753C211.15 25.7753 210.995 25.7753 210.839 25.7753C210.683 25.7753 210.528 25.7753 210.424 25.7753C210.32 25.7753 210.165 25.7753 210.113 25.7753C210.009 25.7753 209.905 25.7753 209.853 25.7753C209.801 25.7753 209.698 25.7753 209.646 25.7753C209.594 25.7753 209.542 25.7753 209.542 25.7753C209.49 25.7753 209.49 25.7753 209.438 25.7753H209.386C209.386 25.7753 209.386 25.7753 209.335 25.7753C210.009 24.129 210.632 22.7399 211.098 21.5566C211.565 20.4248 211.98 19.4473 212.24 18.7271C212.551 18.0068 212.759 17.3894 212.914 16.9779C213.07 16.5663 213.226 16.2062 213.329 15.8975C210.683 19.0357 208.245 21.9168 205.962 24.4377C205.34 24.4377 204.769 24.2319 204.354 23.8203C203.939 23.4087 203.68 22.8943 203.628 22.2769C203.628 21.8139 203.576 21.3509 203.576 20.9393C203.576 20.5277 203.524 20.1161 203.524 19.8074C203.524 19.4473 203.524 19.1386 203.472 18.83C203.472 18.5213 203.472 18.264 203.42 18.0068C203.42 17.7496 203.42 17.5438 203.42 17.338C203.42 17.1322 203.42 16.9779 203.42 16.7721C203.42 16.6177 203.42 16.4634 203.42 16.3605C203.42 16.2576 203.42 16.1547 203.42 16.0518C203.42 15.9489 203.42 15.8975 203.42 15.7946C203.42 15.7431 203.42 15.6917 203.42 15.6402C203.42 15.5888 203.42 15.5888 203.42 15.5374V15.4859C202.694 17.1837 202.123 18.6756 201.656 19.8589C201.189 21.0422 200.774 22.0197 200.463 22.7914C200.152 23.5631 199.944 24.1804 199.737 24.592C199.581 25.0036 199.426 25.3637 199.322 25.7238C199.01 25.7238 198.699 25.7238 198.44 25.7238C198.18 25.7238 197.921 25.7238 197.662 25.7238C197.454 25.7238 197.247 25.7238 197.039 25.7238C196.832 25.7238 196.676 25.7238 196.52 25.7238C196.365 25.7238 196.209 25.7238 196.105 25.7238C196.001 25.7238 195.846 25.7238 195.794 25.7238C195.69 25.7238 195.586 25.7238 195.535 25.7238C195.483 25.7238 195.379 25.7238 195.327 25.7238C195.275 25.7238 195.223 25.7238 195.171 25.7238C195.12 25.7238 195.12 25.7238 195.068 25.7238H195.016C195.016 25.7238 195.016 25.7238 194.964 25.7238C195.431 24.592 195.846 23.5116 196.209 22.5341C196.624 21.5566 196.935 20.6306 197.298 19.8074C197.61 18.9843 197.921 18.2126 198.232 17.4923C198.492 16.7721 198.751 16.1547 199.01 15.5888C199.218 15.0229 199.477 14.5084 199.633 13.9939C199.841 13.5309 199.996 13.1193 200.152 12.7592C200.307 12.3991 200.411 12.039 200.515 11.7817C200.619 11.5245 200.723 11.2673 200.826 11.0615C200.93 10.8557 200.982 10.7013 201.034 10.547C201.086 10.3927 201.138 10.2898 201.189 10.1869C201.241 10.084 201.241 10.0325 201.293 9.98108C201.293 9.92964 201.345 9.87819 201.345 9.87819V9.82674C202.071 8.48912 203.057 7.82031 204.302 7.82031C204.562 7.82031 204.821 7.82031 205.029 7.82031C205.236 7.82031 205.444 7.82031 205.599 7.82031C205.755 7.82031 205.91 7.82031 206.014 7.82031C206.118 7.82031 206.222 7.82031 206.326 7.82031C206.429 7.82031 206.481 7.82031 206.533 7.82031C206.585 7.82031 206.637 7.82031 206.689 7.82031C206.741 7.82031 206.741 7.82031 206.741 7.82031H206.792C206.792 8.38623 206.844 8.9007 206.844 9.41517C206.844 9.92964 206.896 10.3927 206.896 10.8042C206.896 11.2158 206.948 11.6274 206.948 12.039C206.948 12.4505 207 12.8107 207 13.1193C207 13.428 207 13.7882 207.052 14.0454C207.052 14.3541 207.052 14.6113 207.104 14.8171C207.104 15.0743 207.104 15.2801 207.156 15.4859C207.156 15.6917 207.156 15.846 207.156 16.0518C207.156 16.2062 207.156 16.3605 207.156 16.5148C207.156 16.6692 207.156 16.7721 207.156 16.875C207.156 16.9779 207.156 17.0808 207.156 17.1322C207.156 17.2351 207.156 17.2865 207.156 17.338C207.156 17.3894 207.156 17.4409 207.156 17.4923C207.156 17.5438 207.156 17.5438 207.156 17.5952V17.6467C207.156 17.6467 207.156 17.6467 207.156 17.6981C207.882 16.875 208.556 16.1033 209.179 15.383C209.801 14.6628 210.32 14.0454 210.839 13.4795C211.358 12.9136 211.773 12.3991 212.188 11.9361C212.603 11.473 212.966 11.0615 213.277 10.7013C213.589 10.3412 213.9 10.0325 214.107 9.72385C214.367 9.46661 214.574 9.20938 214.73 9.00359C214.886 8.7978 215.041 8.64346 215.197 8.48912C215.301 8.33478 215.404 8.23189 215.508 8.18044C215.56 8.07755 215.664 8.0261 215.664 7.97465C215.716 7.92321 215.768 7.87176 215.768 7.87176C216.286 7.87176 216.701 7.87176 217.117 7.87176C217.532 7.87176 217.843 7.87176 218.154 7.87176C218.465 7.87176 218.725 7.87176 218.984 7.87176C219.244 7.87176 219.451 7.87176 219.607 7.87176C219.762 7.87176 219.918 7.87176 220.074 7.87176C220.177 7.87176 220.281 7.87176 220.385 7.87176C220.437 7.87176 220.541 7.87176 220.541 7.87176C220.592 7.87176 220.592 7.87176 220.644 7.87176H220.696C220.229 9.05504 219.762 10.1869 219.347 11.2158C218.932 12.2447 218.569 13.2222 218.206 14.0968C217.843 14.9714 217.532 15.846 217.22 16.5663C216.909 17.338 216.65 18.0583 216.39 18.6756C216.131 19.293 215.923 19.9103 215.664 20.4248C215.456 20.9393 215.249 21.4538 215.093 21.8653C214.938 22.2769 214.782 22.6885 214.626 22.9972C214.471 23.3573 214.367 23.6145 214.263 23.8718C214.159 24.129 214.056 24.3348 214.004 24.5406C213.952 24.7464 213.848 24.9007 213.796 25.0036C213.744 25.1579 213.692 25.2608 213.641 25.3123C213.589 25.4152 213.589 25.4666 213.537 25.5181C213.537 25.5695 213.485 25.621 213.485 25.621C213.485 25.621 213.485 25.6724 213.433 25.6724C213.329 25.7753 213.07 25.7753 212.759 25.7753Z" fill="white"/>
</g>
<defs>
<clipPath id="clip0">
<rect width="220.8" height="32" fill="white"/>
</clipPath>
</defs>
</svg>
