<svg width="430" height="356" viewBox="0 0 430 356" fill="none" xmlns="http://www.w3.org/2000/svg">
<rect x="103.084" y="119.141" width="221.583" height="27.6176" fill="#088ECB"/>
<rect x="149" y="36" width="131" height="320" fill="#2E4EBC"/>
<path d="M148.928 26.2197H280.375V163.26L148.928 55.0612V26.2197Z" fill="#088ECB"/>
<rect width="430" height="37.0569" fill="#088ECB"/>
<path d="M205.378 153.669V171.974C208.551 171.974 211.846 172.096 215.263 172.34C218.802 172.462 222.036 173.133 224.964 174.354C227.893 175.452 230.273 177.282 232.103 179.845C234.056 182.408 235.032 186.13 235.032 191.011C235.032 197.235 233.019 202.177 228.991 205.838C224.964 209.377 220.022 211.146 214.165 211.146C210.382 211.146 207.087 210.475 204.28 209.133C201.595 207.79 199.338 206.021 197.507 203.824C195.677 201.506 194.274 198.821 193.297 195.77C192.321 192.597 191.772 189.303 191.65 185.886H166.939C166.816 193.33 167.854 199.919 170.05 205.655C172.369 211.39 175.603 216.271 179.752 220.299C183.901 224.204 188.904 227.193 194.762 229.268C200.741 231.342 207.331 232.38 214.531 232.38C220.754 232.38 226.734 231.464 232.469 229.634C238.205 227.803 243.269 225.119 247.662 221.58C252.055 218.041 255.533 213.648 258.096 208.4C260.781 203.153 262.123 197.174 262.123 190.462C262.123 183.14 260.109 176.855 256.082 171.608C252.055 166.361 246.503 162.944 239.425 161.357V160.991C245.405 159.283 249.859 156.049 252.788 151.29C255.838 146.531 257.364 141.039 257.364 134.816C257.364 129.08 256.082 124.016 253.52 119.623C250.957 115.229 247.601 111.508 243.452 108.457C239.425 105.406 234.849 103.148 229.724 101.684C224.598 100.098 219.473 99.3044 214.348 99.3044C207.758 99.3044 201.778 100.403 196.409 102.599C191.04 104.674 186.403 107.664 182.498 111.569C178.715 115.474 175.725 120.172 173.528 125.663C171.454 131.033 170.294 137.012 170.05 143.602H194.762C194.64 137.012 196.226 131.582 199.521 127.311C202.938 122.917 207.941 120.721 214.531 120.721C219.29 120.721 223.5 122.185 227.161 125.114C230.822 128.043 232.652 132.253 232.652 137.744C232.652 141.405 231.737 144.334 229.907 146.531C228.198 148.727 225.941 150.436 223.134 151.656C220.449 152.754 217.521 153.425 214.348 153.669C211.175 153.913 208.185 153.913 205.378 153.669Z" fill="white"/>
<path d="M39.284 21.4554H390.016V166.045C390.016 188.57 371.756 206.83 349.232 206.83H80.0682C57.5437 206.83 39.284 188.57 39.284 166.045V21.4554Z" stroke="#088ECB" stroke-width="12.8454"/>
</svg>
