<svg width="430" height="356" viewBox="0 0 430 356" fill="none" xmlns="http://www.w3.org/2000/svg">
<rect x="103.084" y="119.141" width="221.583" height="27.6176" fill="#088ECB"/>
<rect x="149" y="36" width="131" height="320" fill="#2E4EBC"/>
<path d="M148.928 26.2197H280.375V163.26L148.928 55.0612V26.2197Z" fill="#088ECB"/>
<rect width="430" height="37.0569" fill="#088ECB"/>
<path d="M170.416 151.107H195.311C195.311 147.69 195.616 144.273 196.226 140.856C196.958 137.317 198.118 134.144 199.704 131.338C201.29 128.409 203.365 126.09 205.928 124.382C208.612 122.551 211.846 121.636 215.629 121.636C221.242 121.636 225.819 123.406 229.358 126.945C233.019 130.361 234.849 135.182 234.849 141.405C234.849 145.31 233.934 148.788 232.103 151.839C230.395 154.89 228.198 157.635 225.514 160.076C222.951 162.517 220.083 164.774 216.91 166.849C213.738 168.801 210.748 170.754 207.941 172.706C202.45 176.489 197.202 180.211 192.199 183.872C187.318 187.533 183.047 191.56 179.386 195.953C175.725 200.224 172.796 205.106 170.599 210.597C168.525 216.088 167.488 222.556 167.488 230H261.574V207.668H200.985C204.158 203.275 207.819 199.431 211.968 196.136C216.117 192.841 220.388 189.791 224.781 186.984C229.175 184.055 233.507 181.126 237.778 178.198C242.171 175.269 246.076 172.035 249.493 168.496C252.91 164.835 255.655 160.686 257.73 156.049C259.804 151.412 260.842 145.859 260.842 139.392C260.842 133.168 259.621 127.555 257.181 122.551C254.862 117.548 251.689 113.338 247.662 109.921C243.635 106.504 238.937 103.881 233.568 102.05C228.32 100.22 222.768 99.3044 216.91 99.3044C209.222 99.3044 202.389 100.647 196.409 103.331C190.552 105.894 185.67 109.555 181.765 114.314C177.86 118.951 174.932 124.443 172.979 130.788C171.027 137.012 170.172 143.785 170.416 151.107Z" fill="white"/>
<path d="M39.284 21.4554H390.016V166.045C390.016 188.57 371.756 206.83 349.232 206.83H80.0682C57.5437 206.83 39.284 188.57 39.284 166.045V21.4554Z" stroke="#088ECB" stroke-width="12.8454"/>
</svg>
