<svg width="430" height="356" viewBox="0 0 430 356" fill="none" xmlns="http://www.w3.org/2000/svg">
<rect x="103.084" y="119.141" width="221.583" height="27.6176" fill="#088ECB"/>
<rect x="149" y="36" width="131" height="320" fill="#2E4EBC"/>
<path d="M148.928 26.2197H280.375V163.26L148.928 55.0612V26.2197Z" fill="#088ECB"/>
<rect width="430" height="37.0569" fill="#088ECB"/>
<path d="M235.398 230V101.867H214.714C213.982 106.748 212.456 110.836 210.138 114.131C207.819 117.426 204.951 120.111 201.534 122.185C198.24 124.138 194.457 125.541 190.185 126.395C186.036 127.128 181.704 127.433 177.189 127.311V146.897H209.405V230H235.398Z" fill="white"/>
<path d="M39.284 21.4554H390.016V166.045C390.016 188.57 371.756 206.83 349.232 206.83H80.0682C57.5437 206.83 39.284 188.57 39.284 166.045V21.4554Z" stroke="#088ECB" stroke-width="12.8454"/>
</svg>
