<svg width="330" height="337" viewBox="0 0 330 337" fill="none" xmlns="http://www.w3.org/2000/svg">
<path d="M0.00124337 169.449C0.362725 262.347 75.4659 337.361 168.048 336.999C186.42 336.999 204.26 333.78 220.675 328.216C176.256 314.616 153.589 282.215 142.361 257.679C140.937 254.46 139.682 251.412 138.619 248.555C135.047 237.641 130.773 217.049 134.154 185.373C134.324 183.411 134.685 181.429 134.876 179.468C134.876 178.573 135.047 177.677 135.047 176.953C135.047 176.057 135.047 175.332 135.047 174.437C135.047 172.817 135.047 171.218 134.876 169.598C134.154 163.161 131.496 157.256 125.074 151.159C118.822 145.425 111.869 141.503 104.746 137.197C98.4944 133.445 93.3273 129.331 89.2235 124.854C85.1196 120.548 82.0789 116.093 79.7611 111.425C75.1257 102.472 73.8711 93.5187 74.4027 85.6529C74.7642 77.9575 76.8905 71.328 79.0382 66.4891C80.1014 64.1656 81.1858 62.0126 81.8875 60.5844C82.0576 60.222 82.249 59.8596 82.4191 59.5185C82.4191 59.348 82.5892 59.1561 82.5892 59.1561C82.5892 58.9856 82.7593 58.7938 82.7593 58.7938C82.7593 58.7938 82.7593 58.6232 82.9294 58.6232C82.9294 58.6232 82.9294 58.4527 83.0995 58.4527C83.0995 58.2822 83.2696 58.2822 83.2696 58.0903V58.2608C83.2696 58.4314 83.0995 58.7938 82.9082 59.1561C82.7381 59.8809 82.3766 60.7762 82.1852 61.842C81.6536 63.995 81.4622 66.681 82.0151 69.8998C83.0783 76.1669 87.3735 83.6917 99.8553 89.767C99.8553 89.767 99.8553 93.8811 99.8553 97.9953C99.8553 102.109 100.025 106.053 100.025 106.053C100.025 106.053 100.557 102.301 101.089 98.5282C101.62 94.7764 102.343 91.0034 102.343 91.0034C103.598 91.5363 105.022 92.0692 106.447 92.6234C107.872 93.1564 108.935 94.7764 108.935 96.7376V100.852C108.935 100.852 109.296 99.0611 109.466 97.2705C109.828 95.4799 109.998 93.6893 109.998 93.6893C111.423 94.0517 112.847 94.5846 114.272 94.947C127.477 98.5282 136.216 102.472 141.745 106.224C147.273 109.805 149.952 113.386 151.207 115.88C153.695 112.661 159.585 108.909 172.619 108.014C172.619 108.014 172.258 109.975 172.088 111.958C171.726 113.919 171.556 115.901 171.556 115.901C171.556 115.901 172.088 114.644 172.449 113.386C172.981 112.128 173.342 110.871 173.342 110.871C174.065 109.08 175.66 108.014 177.616 107.822C178.68 107.822 179.934 107.822 181.189 107.822C181.189 107.822 180.657 110.679 180.296 113.556C180.126 114.985 179.934 116.413 179.764 117.5C179.594 118.566 179.594 119.291 179.594 119.291C179.594 119.291 179.764 118.566 180.317 117.5C180.678 116.434 181.21 114.985 181.742 113.556C182.805 110.7 184.059 107.822 184.059 107.822C186.739 107.993 189.588 108.185 192.629 108.547C203.516 109.613 211.532 109.442 217.422 108.718C223.312 107.993 227.054 106.565 229.542 105.136C232.03 103.708 233.115 102.088 233.646 101.193C233.646 101.022 233.816 101.022 233.816 100.83C233.816 100.83 233.816 100.83 233.816 100.66C233.816 100.489 233.986 100.127 233.816 99.9351C233.816 99.9351 233.986 99.9351 234.178 100.297C234.348 100.468 234.348 100.66 234.539 101.022C234.709 101.555 234.901 102.45 235.071 103.346C235.432 106.032 235.241 109.975 233.476 114.26C231.69 118.566 228.479 123.213 222.228 127.86C219.187 130.184 215.444 132.507 210.639 134.66C206.003 136.984 200.475 139.137 193.862 141.29C186.547 143.805 179.232 146.299 172.811 151.138C166.219 155.977 163.901 161.519 163.901 167.253C163.901 169.044 164.071 170.664 164.263 172.263C164.624 173.883 164.986 175.311 165.326 176.91C167.814 185.671 173.534 193.729 179.062 200.721C186.909 210.569 195.116 218.627 204.387 224.532C204.387 224.532 204.919 224.894 206.003 225.427C209.576 227.58 213.148 229.179 216.89 230.607C229.563 235.808 250.253 241.35 272.197 235.446C272.367 235.446 272.367 235.446 272.559 235.275C276.833 234.017 318.403 221.313 328.227 167.253C333.032 140.586 327.865 113.365 315.213 89.3833C287.911 38.0099 234.582 2.38963 173.576 0.0661008C78.1451 -2.57718 -0.360238 74.3976 0.00124337 169.449ZM208.534 255.014C212.999 256.635 217.103 257.7 221.207 258.425C225.141 259.15 228.883 259.683 232.094 259.853C235.305 260.216 238.154 260.216 240.472 260.216C242.789 260.216 244.576 260.045 245.83 260.045C247.085 259.875 247.786 259.875 247.786 259.875C247.786 259.875 247.063 259.875 245.83 259.875C244.576 259.875 242.789 259.875 240.472 259.704C238.154 259.534 235.305 259.171 232.094 258.809C228.883 258.276 225.311 257.743 221.398 256.656C219.442 256.123 217.464 255.59 215.508 255.036C213.552 254.311 211.404 253.608 209.257 252.883C204.983 251.263 200.687 249.131 196.413 246.808C194.266 245.55 192.139 244.292 190.162 242.693C188.014 241.265 186.058 239.645 184.102 238.046C180.168 234.827 176.426 230.884 173.215 226.94C169.834 222.826 166.963 218.52 164.475 214.044C161.988 209.567 159.84 204.92 158.054 200.252C156.268 195.605 154.843 191.128 153.78 186.652C153.418 185.586 153.248 184.499 153.057 183.433C152.695 182.367 152.525 181.28 152.334 180.214C151.802 178.061 151.441 176.1 151.079 174.117C150.718 172.156 150.548 170.174 150.186 168.383C150.016 166.593 149.655 164.802 149.463 163.182C149.293 161.562 149.102 160.134 148.932 158.705C148.762 157.277 148.762 156.019 148.57 154.762C148.4 152.438 148.209 150.648 148.209 149.39C148.209 148.132 148.039 147.429 148.039 147.429C148.039 147.429 148.039 148.154 148.039 149.39C148.039 150.115 148.039 150.818 148.039 151.713C148.039 152.246 148.039 152.609 148.039 153.142C148.039 153.675 148.039 154.208 148.039 154.762C148.039 156.019 148.039 157.277 148.039 158.705C148.039 160.134 148.209 161.562 148.209 163.352C148.209 164.973 148.379 166.763 148.57 168.554C148.74 170.344 148.932 172.305 149.102 174.288C149.633 178.232 150.356 182.708 151.249 187.185C152.313 191.661 153.567 196.5 155.183 201.147C156.969 205.986 158.926 210.804 161.605 215.472C164.093 220.119 167.133 224.787 170.514 228.901C173.895 233.016 177.829 236.959 181.933 240.37C186.037 243.781 190.502 246.637 194.946 249.131C199.624 251.625 204.26 253.586 208.534 255.014ZM79.0382 86.0366C79.0382 84.246 79.0382 82.6259 79.0382 81.1977C79.0382 79.94 79.2083 78.8741 79.2083 78.1494C79.2083 77.4246 79.3784 77.0835 79.3784 77.0835C79.3784 77.0835 79.3784 77.4459 79.2083 78.1494C79.2083 78.5117 79.0382 78.8741 79.0382 79.4071C78.8681 79.94 78.8681 80.4729 78.6767 81.1977C78.5066 82.6259 78.3152 84.246 78.3152 86.0366C78.3152 87.8272 78.3152 89.9802 78.4853 92.3037C78.6554 94.6272 79.0169 96.9507 79.7399 99.4661C80.1014 100.724 80.4628 101.981 80.8031 103.047C81.1645 104.305 81.6961 105.563 82.2277 106.629C82.7593 107.886 83.2909 108.952 84.0139 110.21C84.5455 111.467 85.2684 112.533 85.9701 113.62C87.3948 115.773 89.0108 117.926 90.6056 119.888C92.2216 121.849 93.9865 123.639 95.7727 125.259C96.6657 126.155 97.5588 126.879 98.4519 127.583C99.345 128.308 100.238 129.011 101.131 129.736C102.917 131.164 104.874 132.251 106.49 133.317C108.276 134.383 109.87 135.278 111.486 136.174C113.103 137.069 114.527 137.794 115.76 138.497C116.994 139.201 118.078 139.755 118.971 140.288C119.864 140.821 120.587 141.183 121.119 141.545C121.651 141.908 121.842 141.908 121.842 141.908C121.842 141.908 121.672 141.737 121.119 141.375C120.757 141.012 120.056 140.48 119.163 139.947C118.27 139.222 117.377 138.518 116.122 137.794C114.867 136.898 113.634 136.003 112.018 135.108C110.593 134.212 108.977 133.147 107.191 131.889C106.319 131.335 105.426 130.61 104.725 130.077C103.832 129.352 102.939 128.819 102.045 128.116C101.152 127.391 100.259 126.688 99.3662 125.963C99.0047 125.6 98.4731 125.238 98.1117 124.705C97.7502 124.343 97.2186 123.98 96.8571 123.447C95.071 121.827 93.4762 120.037 91.8602 118.076C90.2441 116.114 88.6493 114.132 87.3948 111.979C86.6718 110.913 85.9701 109.826 85.4385 108.76C84.9069 107.694 84.184 106.607 83.6524 105.35C82.5892 103.026 81.6961 100.702 80.9732 98.3576C80.2502 96.0341 79.7186 93.7106 79.5485 91.5576C79.2083 89.9802 79.0382 87.8272 79.0382 86.0366ZM178.042 144.039C177.51 144.21 177.319 144.402 177.319 144.402C177.319 144.402 177.51 144.21 178.042 144.039C178.573 143.869 179.296 143.677 180.189 143.315C181.082 142.952 182.337 142.59 183.57 142.057C184.825 141.695 186.42 141.162 188.036 140.629C189.63 140.096 191.417 139.563 193.203 139.009C194.989 138.476 196.945 137.751 198.901 137.048C199.964 136.685 200.858 136.323 201.942 135.982C203.005 135.619 203.898 135.257 204.983 134.724C206.939 133.829 209.087 132.933 211.043 131.868C212.999 130.802 214.977 129.715 216.742 128.649C217.635 128.116 218.528 127.583 219.421 126.858C220.314 126.325 221.037 125.6 221.738 125.068C222.461 124.535 223.163 123.81 223.886 123.106C224.609 122.382 225.141 121.849 225.842 121.145C227.097 119.888 227.99 118.63 228.883 117.394C229.776 116.136 230.308 115.07 230.839 113.983C231.371 112.917 231.732 112.022 231.902 111.297C232.073 110.935 232.073 110.572 232.264 110.231C232.264 109.869 232.434 109.698 232.434 109.506C232.434 109.144 232.604 108.782 232.604 108.782C232.604 108.782 232.604 108.952 232.434 109.314C232.264 109.677 232.073 110.21 231.711 111.105C231.35 111.83 231.009 112.725 230.457 113.791C229.925 114.857 229.202 115.944 228.309 117.01C227.416 118.076 226.353 119.333 225.268 120.591C224.014 121.849 222.589 122.915 221.164 124.172C220.463 124.705 219.548 125.238 218.847 125.963C217.954 126.496 217.252 127.029 216.359 127.583C214.573 128.649 212.786 129.736 210.83 130.631C208.874 131.527 206.896 132.592 204.94 133.488C204.409 133.658 204.047 133.85 203.516 134.212C202.984 134.383 202.452 134.575 202.091 134.937C201.028 135.3 200.135 135.662 199.242 136.195C198.348 136.557 197.285 136.92 196.392 137.261C195.499 137.623 194.606 137.986 193.713 138.327C191.927 139.051 190.141 139.584 188.546 140.117C186.93 140.65 185.505 141.375 184.272 141.908C183.017 142.441 181.954 142.974 181.061 143.336C179.105 143.315 178.403 143.677 178.042 144.039Z" fill="#2E2E2E"/>
</svg>
